%
M48
M72
T01C0.0197
T02C0.0276
T03C0.0315
T04C0.0320
T05C0.0400
T06C0.0748
%
T01
X7619Y1312
X7619Y2812
X9744Y9312
X13181Y12312
X15181Y10312
X18431Y13000
X19181Y12312
X18431Y14000
X18431Y15000
X16681Y15812
X13244Y14875
X12681Y15812
X10181Y15437
X9369Y15437
X9369Y16312
X6494Y14312
X3494Y11312
X2369Y10000
T02
X14181Y6312
X15181Y6312
X8431Y16687
X8431Y17687
T03
X2351Y16832
X2681Y16212
X3351Y16212
X3041Y16832
X1981Y16212
X7181Y6812
X7181Y5812
X7181Y4812
X14556Y19062
X16556Y19062
X17244Y19062
X19244Y19062
T04
X2431Y15125
X5431Y15125
X6431Y15125
X7431Y15125
X8744Y14312
X8744Y13312
X8744Y12312
X8744Y11312
X8744Y10312
X8744Y9312
X8744Y8312
X8744Y7312
X8744Y6312
X8744Y5312
X8744Y4312
X8744Y3312
X8744Y2312
X8744Y1312
X11744Y1312
X11744Y2312
X11744Y3312
X11744Y4312
X11744Y5312
X11744Y6312
X11744Y7312
X11744Y8312
X11744Y9312
X11744Y10312
X11744Y11312
X11744Y12312
X11744Y13312
X11744Y14312
X14119Y14312
X14119Y13312
X15619Y14312
X15619Y15312
X17181Y13812
X17181Y16812
X13181Y17312
X13181Y18062
X13181Y19062
X10681Y19312
X9681Y19312
X8681Y19312
X7681Y19312
X10181Y17312
X14869Y9062
X14869Y8062
X16431Y7000
X16431Y4000
X16681Y2312
X16681Y1312
X13181Y4812
X13181Y7812
T05
X681Y1312
X681Y2312
X681Y3312
X681Y4312
X681Y6312
X681Y7312
X681Y8312
X681Y9312
X681Y11312
X681Y12312
X681Y13312
X681Y14312
X6369Y16750
X6369Y17750
X6369Y18750
X19181Y9312
X19181Y8312
X19181Y7312
X19181Y6312
X19181Y4312
X19181Y3312
X19181Y2312
X19181Y1312
X6369Y1062
X5369Y1062
X4369Y1062
X3369Y1062
X2369Y1062
T06
X1244Y18312
X4118Y18312
M30
