G75*
G70*
%OFA0B0*%
%FSLAX24Y24*%
%IPPOS*%
%LPD*%
%AMOC8*
5,1,8,0,0,1.08239X$1,22.5*
%
%ADD10C,0.0000*%
%ADD11C,0.0060*%
%ADD12C,0.0050*%
D10*
X000181Y000312D02*
X000181Y019997D01*
X019866Y019997D01*
X019866Y000312D01*
X000181Y000312D01*
D11*
X002163Y012116D02*
X002057Y012223D01*
X002057Y012757D01*
X002377Y012757D01*
X002484Y012650D01*
X002484Y012437D01*
X002377Y012330D01*
X002057Y012330D01*
X002163Y012116D02*
X002270Y012116D01*
X002701Y012330D02*
X002701Y012650D01*
X002808Y012757D01*
X003128Y012757D01*
X003128Y012330D01*
X003346Y012330D02*
X003346Y012757D01*
X003773Y012757D02*
X003773Y012437D01*
X003666Y012330D01*
X003346Y012330D01*
X003990Y012437D02*
X003990Y012864D01*
X004097Y012970D01*
X004311Y012970D01*
X004417Y012864D01*
X004417Y012437D01*
X004311Y012330D01*
X004097Y012330D01*
X003990Y012437D01*
X005279Y012330D02*
X005599Y012543D01*
X005279Y012757D01*
X005599Y012970D02*
X005599Y012330D01*
X005816Y012543D02*
X006243Y012543D01*
X006243Y012437D02*
X006243Y012650D01*
X006137Y012757D01*
X005923Y012757D01*
X005816Y012650D01*
X005816Y012543D01*
X005923Y012330D02*
X006137Y012330D01*
X006243Y012437D01*
X006460Y012757D02*
X006567Y012757D01*
X006781Y012543D01*
X006781Y012330D02*
X006781Y012757D01*
X006998Y012650D02*
X006998Y012543D01*
X007425Y012543D01*
X007425Y012437D02*
X007425Y012650D01*
X007318Y012757D01*
X007105Y012757D01*
X006998Y012650D01*
X007105Y012330D02*
X007318Y012330D01*
X007425Y012437D01*
X007643Y012437D02*
X007643Y012864D01*
X007749Y012970D01*
X008070Y012970D01*
X008070Y012330D01*
X007749Y012330D01*
X007643Y012437D01*
D12*
X004217Y016246D02*
X004217Y019789D01*
X001146Y019789D01*
X001146Y016246D01*
X004217Y016246D01*
X002977Y017623D02*
X002386Y017623D01*
X002189Y019592D01*
X001894Y019592D02*
X002091Y017820D01*
X001303Y017820D02*
X001500Y019592D01*
X001894Y019592D01*
X003174Y019592D02*
X002977Y017623D01*
X003272Y018017D02*
X003469Y019592D01*
X003863Y019592D01*
X004059Y018017D01*
M02*
