  0
SECTION
  2
HEADER
  9
$ACADVER
  1
AC1015
  9
$ACADMAINTVER
 70
     6
  9
$DWGCODEPAGE
  3
ANSI_1252
  9
$INSBASE
 10
0.0
 20
0.0
 30
0.0
  9
$EXTMIN
 10
0.0
 20
0.0
 30
0.0
  9
$EXTMAX
 10
2.74
 20
2.0
 30
0.0
  9
$LIMMIN
 10
0.0
 20
0.0
  9
$LIMMAX
 10
12.0
 20
9.0
  9
$ORTHOMODE
 70
     0
  9
$REGENMODE
 70
     1
  9
$FILLMODE
 70
     1
  9
$QTEXTMODE
 70
     0
  9
$MIRRTEXT
 70
     1
  9
$LTSCALE
 40
1.0
  9
$ATTMODE
 70
     1
  9
$TEXTSIZE
 40
0.1377952756
  9
$TRACEWID
 40
0.05
  9
$TEXTSTYLE
  7
Standard
  9
$CLAYER
  8
0
  9
$CELTYPE
  6
ByLayer
  9
$CECOLOR
 62
   256
  9
$CELTSCALE
 40
1.0
  9
$DISPSILH
 70
     0
  9
$DIMSCALE
 40
1.0
  9
$DIMASZ
 40
0.13
  9
$DIMEXO
 40
0.0393700787
  9
$DIMDLI
 40
0.38
  9
$DIMRND
 40
0.0
  9
$DIMDLE
 40
0.0
  9
$DIMEXE
 40
0.0393700787
  9
$DIMTP
 40
0.0
  9
$DIMTM
 40
0.0
  9
$DIMTXT
 40
0.1377952756
  9
$DIMCEN
 40
0.09
  9
$DIMTSZ
 40
0.0
  9
$DIMTOL
 70
     0
  9
$DIMLIM
 70
     0
  9
$DIMTIH
 70
     1
  9
$DIMTOH
 70
     1
  9
$DIMSE1
 70
     0
  9
$DIMSE2
 70
     0
  9
$DIMTAD
 70
     1
  9
$DIMZIN
 70
     0
  9
$DIMBLK
  1

  9
$DIMASO
 70
     1
  9
$DIMSHO
 70
     1
  9
$DIMPOST
  1

  9
$DIMAPOST
  1

  9
$DIMALT
 70
     0
  9
$DIMALTD
 70
     2
  9
$DIMALTF
 40
25.4
  9
$DIMLFAC
 40
1.0
  9
$DIMTOFL
 70
     0
  9
$DIMTVP
 40
0.0
  9
$DIMTIX
 70
     0
  9
$DIMSOXD
 70
     0
  9
$DIMSAH
 70
     0
  9
$DIMBLK1
  1

  9
$DIMBLK2
  1

  9
$DIMSTYLE
  2
Standard
  9
$DIMCLRD
 70
     0
  9
$DIMCLRE
 70
     0
  9
$DIMCLRT
 70
     0
  9
$DIMTFAC
 40
1.0
  9
$DIMGAP
 40
0.06
  9
$DIMJUST
 70
     0
  9
$DIMSD1
 70
     0
  9
$DIMSD2
 70
     0
  9
$DIMTOLJ
 70
     1
  9
$DIMTZIN
 70
     0
  9
$DIMALTZ
 70
     0
  9
$DIMALTTZ
 70
     0
  9
$DIMUPT
 70
     0
  9
$DIMDEC
 70
     2
  9
$DIMTDEC
 70
     2
  9
$DIMALTU
 70
     2
  9
$DIMALTTD
 70
     2
  9
$DIMTXSTY
  7
Standard
  9
$DIMAUNIT
 70
     0
  9
$DIMADEC
 70
     2
  9
$DIMALTRND
 40
0.0
  9
$DIMAZIN
 70
     0
  9
$DIMDSEP
 70
    46
  9
$DIMATFIT
 70
     3
  9
$DIMFRAC
 70
     0
  9
$DIMLDRBLK
  1

  9
$DIMLUNIT
 70
     2
  9
$DIMLWD
 70
    -2
  9
$DIMLWE
 70
    -2
  9
$DIMTMOVE
 70
     0
  9
$LUNITS
 70
     2
  9
$LUPREC
 70
     5
  9
$SKETCHINC
 40
0.1
  9
$FILLETRAD
 40
0.5
  9
$AUNITS
 70
     0
  9
$AUPREC
 70
     2
  9
$MENU
  1
.
  9
$ELEVATION
 40
0.0
  9
$PELEVATION
 40
0.0
  9
$THICKNESS
 40
0.0
  9
$LIMCHECK
 70
     0
  9
$CHAMFERA
 40
0.0
  9
$CHAMFERB
 40
0.0
  9
$CHAMFERC
 40
0.0
  9
$CHAMFERD
 40
0.0
  9
$SKPOLY
 70
     0
  9
$TDCREATE
 40
2457157.616011018
  9
$TDUCREATE
 40
2457157.824344352
  9
$TDUPDATE
 40
2457157.616035926
  9
$TDUUPDATE
 40
2457157.824369259
  9
$TDINDWG
 40
0.0000000116
  9
$TDUSRTIMER
 40
0.0000000116
  9
$USRTIMER
 70
     1
  9
$ANGBASE
 50
0.0
  9
$ANGDIR
 70
     0
  9
$PDMODE
 70
     0
  9
$PDSIZE
 40
-1.0
  9
$PLINEWID
 40
0.0
  9
$SPLFRAME
 70
     0
  9
$SPLINETYPE
 70
     6
  9
$SPLINESEGS
 70
     8
  9
$HANDSEED
  5
D9
  9
$SURFTAB1
 70
     6
  9
$SURFTAB2
 70
     6
  9
$SURFTYPE
 70
     6
  9
$SURFU
 70
     6
  9
$SURFV
 70
     6
  9
$UCSBASE
  2

  9
$UCSNAME
  2

  9
$UCSORG
 10
0.0
 20
0.0
 30
0.0
  9
$UCSXDIR
 10
1.0
 20
0.0
 30
0.0
  9
$UCSYDIR
 10
0.0
 20
1.0
 30
0.0
  9
$UCSORTHOREF
  2

  9
$UCSORTHOVIEW
 70
     0
  9
$UCSORGTOP
 10
0.0
 20
0.0
 30
0.0
  9
$UCSORGBOTTOM
 10
0.0
 20
0.0
 30
0.0
  9
$UCSORGLEFT
 10
0.0
 20
0.0
 30
0.0
  9
$UCSORGRIGHT
 10
0.0
 20
0.0
 30
0.0
  9
$UCSORGFRONT
 10
0.0
 20
0.0
 30
0.0
  9
$UCSORGBACK
 10
0.0
 20
0.0
 30
0.0
  9
$PUCSBASE
  2

  9
$PUCSNAME
  2

  9
$PUCSORG
 10
0.0
 20
0.0
 30
0.0
  9
$PUCSXDIR
 10
1.0
 20
0.0
 30
0.0
  9
$PUCSYDIR
 10
0.0
 20
1.0
 30
0.0
  9
$PUCSORTHOREF
  2

  9
$PUCSORTHOVIEW
 70
     0
  9
$PUCSORGTOP
 10
0.0
 20
0.0
 30
0.0
  9
$PUCSORGBOTTOM
 10
0.0
 20
0.0
 30
0.0
  9
$PUCSORGLEFT
 10
0.0
 20
0.0
 30
0.0
  9
$PUCSORGRIGHT
 10
0.0
 20
0.0
 30
0.0
  9
$PUCSORGFRONT
 10
0.0
 20
0.0
 30
0.0
  9
$PUCSORGBACK
 10
0.0
 20
0.0
 30
0.0
  9
$USERI1
 70
     0
  9
$USERI2
 70
     0
  9
$USERI3
 70
     0
  9
$USERI4
 70
     0
  9
$USERI5
 70
     0
  9
$USERR1
 40
0.0
  9
$USERR2
 40
0.0
  9
$USERR3
 40
0.0
  9
$USERR4
 40
0.0
  9
$USERR5
 40
0.0
  9
$WORLDVIEW
 70
     1
  9
$SHADEDGE
 70
     3
  9
$SHADEDIF
 70
    70
  9
$TILEMODE
 70
     1
  9
$MAXACTVP
 70
    64
  9
$PINSBASE
 10
0.0
 20
0.0
 30
0.0
  9
$PLIMCHECK
 70
     0
  9
$PEXTMIN
 10
1.0000000000E+20
 20
1.0000000000E+20
 30
1.0000000000E+20
  9
$PEXTMAX
 10
-1.0000000000E+20
 20
-1.0000000000E+20
 30
-1.0000000000E+20
  9
$PLIMMIN
 10
0.0
 20
0.0
  9
$PLIMMAX
 10
12.0
 20
9.0
  9
$UNITMODE
 70
     0
  9
$VISRETAIN
 70
     1
  9
$PLINEGEN
 70
     0
  9
$PSLTSCALE
 70
     1
  9
$TREEDEPTH
 70
  3020
  9
$CMLSTYLE
  2
Standard
  9
$CMLJUST
 70
     0
  9
$CMLSCALE
 40
1.0
  9
$PROXYGRAPHICS
 70
     1
  9
$MEASUREMENT
 70
     0
  9
$CELWEIGHT
370
    -1
  9
$ENDCAPS
280
     0
  9
$JOINSTYLE
280
     0
  9
$LWDISPLAY
290
     1
  9
$INSUNITS
 70
     1
  9
$HYPERLINKBASE
  1

  9
$STYLESHEET
  1

  9
$XEDIT
290
     1
  9
$CEPSNTYPE
380
     0
  9
$PSTYLEMODE
290
     1
  9
$FINGERPRINTGUID
  2
{C58328D2-7B3F-41F8-9DCC-7A43A2983E06}
  9
$VERSIONGUID
  2
{FAEB1C32-E019-11D5-929B-00C0DF256EC4}
  9
$EXTNAMES
290
     1
  9
$PSVPSCALE
 40
0.0
  9
$OLESTARTUP
290
     0
  0
ENDSEC
  0
SECTION
  2
CLASSES
  0
CLASS
  1
ACDBDICTIONARYWDFLT
  2
AcDbDictionaryWithDefault
  3
ObjectDBX Classes
 90
        0
280
     0
281
     0
  0
CLASS
  1
VISUALSTYLE
  2
AcDbVisualStyle
  3
ObjectDBX Classes
 90
     4095
280
     0
281
     0
  0
CLASS
  1
MATERIAL
  2
AcDbMaterial
  3
ObjectDBX Classes
 90
     1153
280
     0
281
     0
  0
CLASS
  1
SCALE
  2
AcDbScale
  3
ObjectDBX Classes
 90
     1153
280
     0
281
     0
  0
CLASS
  1
SUN
  2
AcDbSun
  3
SCENEOE
 90
     1153
280
     0
281
     0
  0
CLASS
  1
ACDBPLACEHOLDER
  2
AcDbPlaceHolder
  3
ObjectDBX Classes
 90
        0
280
     0
281
     0
  0
CLASS
  1
LAYOUT
  2
AcDbLayout
  3
ObjectDBX Classes
 90
        0
280
     0
281
     0
  0
ENDSEC
  0
SECTION
  2
TABLES
  0
TABLE
  2
VPORT
  5
8
330
0
100
AcDbSymbolTable
 70
     1
  0
VPORT
  5
29
330
8
100
AcDbSymbolTableRecord
100
AcDbViewportTableRecord
  2
*Active
 70
     0
 10
0.0
 20
0.0
 11
1.0
 21
1.0
 12
1.37
 22
1.0
 13
0.0
 23
0.0
 14
0.5
 24
0.5
 15
0.5
 25
0.5
 16
0.0
 26
0.0
 36
1.0
 17
0.0
 27
0.0
 37
0.0
 40
2.04
 41
1.37
 42
50.0
 43
0.0
 44
0.0
 50
0.0
 51
0.0
 71
     0
 72
   100
 73
     1
 74
     3
 75
     0
 76
     0
 77
     0
 78
     0
281
     0
 65
     1
110
0.0
120
0.0
130
0.0
111
1.0
121
0.0
131
0.0
112
0.0
122
1.0
132
0.0
 79
     0
146
0.0
  0
ENDTAB
  0
TABLE
  2
LTYPE
  5
5
330
0
100
AcDbSymbolTable
 70
     6
  0
LTYPE
  5
14
330
5
100
AcDbSymbolTableRecord
100
AcDbLinetypeTableRecord
  2
ByBlock
 70
     0
  3

 72
    65
 73
     0
 40
0.0
  0
LTYPE
  5
15
330
5
100
AcDbSymbolTableRecord
100
AcDbLinetypeTableRecord
  2
ByLayer
 70
     0
  3

 72
    65
 73
     0
 40
0.0
  0
LTYPE
  5
16
330
5
100
AcDbSymbolTableRecord
100
AcDbLinetypeTableRecord
  2
Continuous
 70
     0
  3
Solid line
 72
    65
 73
     0
 40
0.0
  0
LTYPE
  5
6A
330
5
100
AcDbSymbolTableRecord
100
AcDbLinetypeTableRecord
  2
HIDDEN
 70
     0
  3
Hidden __ __ __ __ __ __ __ __ __ __ __ __ __ __
 72
    65
 73
     2
 40
0.075
 49
0.05
 74
     0
 49
-0.025
 74
     0
  0
LTYPE
  5
6B
330
5
100
AcDbSymbolTableRecord
100
AcDbLinetypeTableRecord
  2
PHANTOM
 70
     0
  3
Phantom ______  __  __  ______  __  __  ______
 72
    65
 73
     6
 40
0.5
 49
0.25
 74
     0
 49
-0.05
 74
     0
 49
0.05
 74
     0
 49
-0.05
 74
     0
 49
0.05
 74
     0
 49
-0.05
 74
     0
  0
LTYPE
  5
6C
330
5
100
AcDbSymbolTableRecord
100
AcDbLinetypeTableRecord
  2
CENTER
 70
     0
  3
Center ____ _ ____ _ ____ _ ____ _ ____ _ ____
 72
    65
 73
     4
 40
0.4
 49
0.25
 74
     0
 49
-0.05
 74
     0
 49
0.05
 74
     0
 49
-0.05
 74
     0
  0
LTYPE
  5
6D
330
5
100
AcDbSymbolTableRecord
100
AcDbLinetypeTableRecord
  2
CENTERX2
 70
     0
  3
Center (2x) ________  __  ________  __  _____
 72
    65
 73
     4
 40
0.8
 49
0.5
 74
     0
 49
-0.1
 74
     0
 49
0.1
 74
     0
 49
-0.1
 74
     0
  0
LTYPE
  5
6E
330
5
100
AcDbSymbolTableRecord
100
AcDbLinetypeTableRecord
  2
DOT2
 70
     0
  3
Dot (.5x) ........................................
 72
    65
 73
     2
 40
0.025
 49
0.0
 74
     0
 49
-0.025
 74
     0
  0
ENDTAB
  0
TABLE
  2
LAYER
  5
2
330
0
100
AcDbSymbolTable
 70
     1
  0
LAYER
  5
10
330
2
100
AcDbSymbolTableRecord
100
AcDbLayerTableRecord
  2
0
 70
     0
 62
     7
  6
Continuous
370
    -3
390
F
  0
ENDTAB
  0
TABLE
  2
STYLE
  5
3
330
0
100
AcDbSymbolTable
 70
     2
  0
STYLE
  5
11
330
3
100
AcDbSymbolTableRecord
100
AcDbTextStyleTableRecord
  2
Standard
 70
     0
 40
0.0
 41
1.0
 50
0.0
 71
     0
 42
0.1377952756
  3
txt
  4

  0
STYLE
  5
D6
330
3
100
AcDbSymbolTableRecord
100
AcDbTextStyleTableRecord
  2
SLDTEXTSTYLE0
 70
     0
 40
0.0
 41
0.7
 50
0.0
 71
     0
 42
0.1377952756
  3
TXT
  4

  0
ENDTAB
  0
TABLE
  2
VIEW
  5
6
330
0
100
AcDbSymbolTable
 70
     0
  0
ENDTAB
  0
TABLE
  2
UCS
  5
7
330
0
100
AcDbSymbolTable
 70
     0
  0
ENDTAB
  0
TABLE
  2
APPID
  5
9
330
0
100
AcDbSymbolTable
 70
     1
  0
APPID
  5
12
330
9
100
AcDbSymbolTableRecord
100
AcDbRegAppTableRecord
  2
ACAD
 70
     0
  0
ENDTAB
  0
TABLE
  2
DIMSTYLE
  5
A
330
0
100
AcDbSymbolTable
 70
     1
100
AcDbDimStyleTable
  0
DIMSTYLE
105
27
330
A
100
AcDbSymbolTableRecord
100
AcDbDimStyleTableRecord
  2
Standard
 70
     0
178
     0
340
11
  0
ENDTAB
  0
TABLE
  2
BLOCK_RECORD
  5
1
330
0
100
AcDbSymbolTable
 70
     1
  0
BLOCK_RECORD
  5
1F
330
1
100
AcDbSymbolTableRecord
100
AcDbBlockTableRecord
  2
*Model_Space
340
22
  0
BLOCK_RECORD
  5
1B
330
1
100
AcDbSymbolTableRecord
100
AcDbBlockTableRecord
  2
*Paper_Space
340
1E
  0
BLOCK_RECORD
  5
23
330
1
100
AcDbSymbolTableRecord
100
AcDbBlockTableRecord
  2
*Paper_Space0
340
26
  0
ENDTAB
  0
ENDSEC
  0
SECTION
  2
BLOCKS
  0
BLOCK
  5
20
330
1F
100
AcDbEntity
  8
0
100
AcDbBlockBegin
  2
*Model_Space
 70
     0
 10
0.0
 20
0.0
 30
0.0
  3
*Model_Space
  1
*Model_Space
  0
ENDBLK
  5
21
330
1F
100
AcDbEntity
  8
0
100
AcDbBlockEnd
  0
BLOCK
  5
1C
330
1B
100
AcDbEntity
 67
     1
  8
0
100
AcDbBlockBegin
  2
*Paper_Space
 70
     0
 10
0.0
 20
0.0
 30
0.0
  3
*Paper_Space
  1
*Paper_Space
  0
ENDBLK
  5
1D
330
1B
100
AcDbEntity
 67
     1
  8
0
100
AcDbBlockEnd
  0
BLOCK
  5
24
330
23
100
AcDbEntity
  8
0
100
AcDbBlockBegin
  2
*Paper_Space0
 70
     0
 10
0.0
 20
0.0
 30
0.0
  3
*Paper_Space0
  1
*Paper_Space0
  0
ENDBLK
  5
25
330
23
100
AcDbEntity
  8
0
100
AcDbBlockEnd
  0
ENDSEC
  0
SECTION
  2
ENTITIES
  0
LWPOLYLINE
  5
6F
330
1F
100
AcDbEntity
  8
0
  6
Continuous
 62
     7
370
    15
100
AcDbPolyline
 90
      119
 70
   128
 43
0.0
 10
2.32
 20
0.18125
 10
2.3219958316
 20
0.1824104179
 10
2.3239860057
 20
0.1858883823
 10
2.3259648811
 20
0.1916740346
 10
2.3279268484
 20
0.1997509746
 10
2.3298663462
 20
0.2100963074
 10
2.3317778767
 20
0.2226807081
 10
2.3336560216
 20
0.2374685047
 10
2.335495457
 20
0.2544177797
 10
2.3372909688
 20
0.2734804885
 10
2.3390374675
 20
0.2946025959
 10
2.3407300025
 20
0.3177242288
 10
2.3423637759
 20
0.3427798464
 10
2.3439341569
 20
0.3696984261
 10
2.3454366939
 20
0.398403664
 10
2.3468671278
 20
0.4288141921
 10
2.3482214039
 20
0.4608438084
 10
2.3494956833
 20
0.4944017215
 10
2.3506863541
 20
0.5293928079
 10
2.351790041
 20
0.5657178815
 10
2.3528036157
 20
0.6032739749
 10
2.3537242049
 20
0.6419546314
 10
2.3545491992
 20
0.6816502063
 10
2.35527626
 20
0.7222481784
 10
2.3559033264
 20
0.7636334681
 10
2.356428621
 20
0.8056887645
 10
2.3568506547
 20
0.8482948572
 10
2.3571682312
 20
0.8913309745
 10
2.3573804503
 20
0.9346751261
 10
2.3574867104
 20
0.9782044481
 10
2.3574867104
 20
1.0217955519
 10
2.3573804503
 20
1.0653248739
 10
2.3571682312
 20
1.1086690255
 10
2.3568506547
 20
1.1517051428
 10
2.356428621
 20
1.1943112355
 10
2.3559033264
 20
1.2363665319
 10
2.35527626
 20
1.2777518216
 10
2.3545491992
 20
1.3183497937
 10
2.3537242049
 20
1.3580453686
 10
2.3528036157
 20
1.3967260251
 10
2.351790041
 20
1.4342821185
 10
2.3506863541
 20
1.4706071921
 10
2.3494956833
 20
1.5055982785
 10
2.3482214039
 20
1.5391561916
 10
2.3468671278
 20
1.5711858079
 10
2.3454366939
 20
1.601596336
 10
2.3439341569
 20
1.6303015739
 10
2.3423637759
 20
1.6572201536
 10
2.3407300025
 20
1.6822757712
 10
2.3390374675
 20
1.7053974041
 10
2.3372909688
 20
1.7265195115
 10
2.335495457
 20
1.7455822203
 10
2.3336560216
 20
1.7625314953
 10
2.3317778767
 20
1.7773192919
 10
2.3298663462
 20
1.7899036926
 10
2.3279268484
 20
1.8002490254
 10
2.3259648811
 20
1.8083259654
 10
2.3239860057
 20
1.8141116177
 10
2.3219958316
 20
1.8175895821
 10
2.32
 20
1.81875
 10
2.3180041684
 20
1.8175895821
 10
2.3160139943
 20
1.8141116177
 10
2.3140351189
 20
1.8083259654
 10
2.3120731516
 20
1.8002490254
 10
2.3101336538
 20
1.7899036926
 10
2.3082221233
 20
1.7773192919
 10
2.3063439784
 20
1.7625314953
 10
2.304504543
 20
1.7455822203
 10
2.3027090312
 20
1.7265195115
 10
2.3009625325
 20
1.7053974041
 10
2.2992699975
 20
1.6822757712
 10
2.2976362241
 20
1.6572201536
 10
2.2960658431
 20
1.6303015739
 10
2.2945633061
 20
1.601596336
 10
2.2931328722
 20
1.5711858079
 10
2.2917785961
 20
1.5391561916
 10
2.2905043167
 20
1.5055982785
 10
2.2893136459
 20
1.4706071921
 10
2.288209959
 20
1.4342821185
 10
2.2871963843
 20
1.3967260251
 10
2.2862757951
 20
1.3580453686
 10
2.2854508008
 20
1.3183497937
 10
2.28472374
 20
1.2777518216
 10
2.2840966736
 20
1.2363665319
 10
2.283571379
 20
1.1943112355
 10
2.2831493453
 20
1.1517051428
 10
2.2828317688
 20
1.1086690255
 10
2.2826195497
 20
1.0653248739
 10
2.2825132896
 20
1.0217955519
 10
2.2825132896
 20
0.9782044481
 10
2.2826195497
 20
0.9346751261
 10
2.2828317688
 20
0.8913309745
 10
2.2831493453
 20
0.8482948572
 10
2.283571379
 20
0.8056887645
 10
2.2840966736
 20
0.7636334681
 10
2.28472374
 20
0.7222481784
 10
2.2854508008
 20
0.6816502063
 10
2.2862757951
 20
0.6419546314
 10
2.2871963843
 20
0.6032739749
 10
2.288209959
 20
0.5657178815
 10
2.2893136459
 20
0.5293928079
 10
2.2905043167
 20
0.4944017215
 10
2.2917785961
 20
0.4608438084
 10
2.2931328722
 20
0.4288141921
 10
2.2945633061
 20
0.398403664
 10
2.2960658431
 20
0.3696984261
 10
2.2976362241
 20
0.3427798464
 10
2.2992699975
 20
0.3177242288
 10
2.3009625325
 20
0.2946025959
 10
2.3027090312
 20
0.2734804885
 10
2.304504543
 20
0.2544177797
 10
2.3063439784
 20
0.2374685047
 10
2.3082221233
 20
0.2226807081
 10
2.3101336538
 20
0.2100963074
 10
2.3120731516
 20
0.1997509746
 10
2.3140351189
 20
0.1916740346
 10
2.3160139943
 20
0.1858883823
 10
2.3180041684
 20
0.1824104179
 10
2.32
 20
0.18125
  0
LWPOLYLINE
  5
70
330
1F
100
AcDbEntity
  8
0
  6
Continuous
 62
     7
370
    15
100
AcDbPolyline
 90
      119
 70
   128
 43
0.0
 10
1.9
 20
0.18125
 10
1.9019958316
 20
0.1824104179
 10
1.9039860057
 20
0.1858883823
 10
1.9059648811
 20
0.1916740346
 10
1.9079268484
 20
0.1997509746
 10
1.9098663462
 20
0.2100963074
 10
1.9117778767
 20
0.2226807081
 10
1.9136560216
 20
0.2374685047
 10
1.915495457
 20
0.2544177797
 10
1.9172909688
 20
0.2734804885
 10
1.9190374675
 20
0.2946025959
 10
1.9207300025
 20
0.3177242288
 10
1.9223637759
 20
0.3427798464
 10
1.9239341569
 20
0.3696984261
 10
1.9254366939
 20
0.398403664
 10
1.9268671278
 20
0.4288141921
 10
1.9282214039
 20
0.4608438084
 10
1.9294956833
 20
0.4944017215
 10
1.9306863541
 20
0.5293928079
 10
1.931790041
 20
0.5657178815
 10
1.9328036157
 20
0.6032739749
 10
1.9337242049
 20
0.6419546314
 10
1.9345491992
 20
0.6816502063
 10
1.93527626
 20
0.7222481784
 10
1.9359033264
 20
0.7636334681
 10
1.936428621
 20
0.8056887645
 10
1.9368506547
 20
0.8482948572
 10
1.9371682312
 20
0.8913309745
 10
1.9373804503
 20
0.9346751261
 10
1.9374867104
 20
0.9782044481
 10
1.9374867104
 20
1.0217955519
 10
1.9373804503
 20
1.0653248739
 10
1.9371682312
 20
1.1086690255
 10
1.9368506547
 20
1.1517051428
 10
1.936428621
 20
1.1943112355
 10
1.9359033264
 20
1.2363665319
 10
1.93527626
 20
1.2777518216
 10
1.9345491992
 20
1.3183497937
 10
1.9337242049
 20
1.3580453686
 10
1.9328036157
 20
1.3967260251
 10
1.931790041
 20
1.4342821185
 10
1.9306863541
 20
1.4706071921
 10
1.9294956833
 20
1.5055982785
 10
1.9282214039
 20
1.5391561916
 10
1.9268671278
 20
1.5711858079
 10
1.9254366939
 20
1.601596336
 10
1.9239341569
 20
1.6303015739
 10
1.9223637759
 20
1.6572201536
 10
1.9207300025
 20
1.6822757712
 10
1.9190374675
 20
1.7053974041
 10
1.9172909688
 20
1.7265195115
 10
1.915495457
 20
1.7455822203
 10
1.9136560216
 20
1.7625314953
 10
1.9117778767
 20
1.7773192919
 10
1.9098663462
 20
1.7899036926
 10
1.9079268484
 20
1.8002490254
 10
1.9059648811
 20
1.8083259654
 10
1.9039860057
 20
1.8141116177
 10
1.9019958316
 20
1.8175895821
 10
1.9
 20
1.81875
 10
1.8980041684
 20
1.8175895821
 10
1.8960139943
 20
1.8141116177
 10
1.8940351189
 20
1.8083259654
 10
1.8920731516
 20
1.8002490254
 10
1.8901336538
 20
1.7899036926
 10
1.8882221233
 20
1.7773192919
 10
1.8863439784
 20
1.7625314953
 10
1.884504543
 20
1.7455822203
 10
1.8827090312
 20
1.7265195115
 10
1.8809625325
 20
1.7053974041
 10
1.8792699975
 20
1.6822757712
 10
1.8776362241
 20
1.6572201536
 10
1.8760658431
 20
1.6303015739
 10
1.8745633061
 20
1.601596336
 10
1.8731328722
 20
1.5711858079
 10
1.8717785961
 20
1.5391561916
 10
1.8705043167
 20
1.5055982785
 10
1.8693136459
 20
1.4706071921
 10
1.868209959
 20
1.4342821185
 10
1.8671963843
 20
1.3967260251
 10
1.8662757951
 20
1.3580453686
 10
1.8654508008
 20
1.3183497937
 10
1.86472374
 20
1.2777518216
 10
1.8640966736
 20
1.2363665319
 10
1.863571379
 20
1.1943112355
 10
1.8631493453
 20
1.1517051428
 10
1.8628317688
 20
1.1086690255
 10
1.8626195497
 20
1.0653248739
 10
1.8625132896
 20
1.0217955519
 10
1.8625132896
 20
0.9782044481
 10
1.8626195497
 20
0.9346751261
 10
1.8628317688
 20
0.8913309745
 10
1.8631493453
 20
0.8482948572
 10
1.863571379
 20
0.8056887645
 10
1.8640966736
 20
0.7636334681
 10
1.86472374
 20
0.7222481784
 10
1.8654508008
 20
0.6816502063
 10
1.8662757951
 20
0.6419546314
 10
1.8671963843
 20
0.6032739749
 10
1.868209959
 20
0.5657178815
 10
1.8693136459
 20
0.5293928079
 10
1.8705043167
 20
0.4944017215
 10
1.8717785961
 20
0.4608438084
 10
1.8731328722
 20
0.4288141921
 10
1.8745633061
 20
0.398403664
 10
1.8760658431
 20
0.3696984261
 10
1.8776362241
 20
0.3427798464
 10
1.8792699975
 20
0.3177242288
 10
1.8809625325
 20
0.2946025959
 10
1.8827090312
 20
0.2734804885
 10
1.884504543
 20
0.2544177797
 10
1.8863439784
 20
0.2374685047
 10
1.8882221233
 20
0.2226807081
 10
1.8901336538
 20
0.2100963074
 10
1.8920731516
 20
0.1997509746
 10
1.8940351189
 20
0.1916740346
 10
1.8960139943
 20
0.1858883823
 10
1.8980041684
 20
0.1824104179
 10
1.9
 20
0.18125
  0
LWPOLYLINE
  5
71
330
1F
100
AcDbEntity
  8
0
  6
Continuous
 62
     7
370
    15
100
AcDbPolyline
 90
      119
 70
   128
 43
0.0
 10
1.48
 20
0.18125
 10
1.4819958316
 20
0.1824104179
 10
1.4839860057
 20
0.1858883823
 10
1.4859648811
 20
0.1916740346
 10
1.4879268484
 20
0.1997509746
 10
1.4898663462
 20
0.2100963074
 10
1.4917778767
 20
0.2226807081
 10
1.4936560216
 20
0.2374685047
 10
1.495495457
 20
0.2544177797
 10
1.4972909688
 20
0.2734804885
 10
1.4990374675
 20
0.2946025959
 10
1.5007300025
 20
0.3177242288
 10
1.5023637759
 20
0.3427798464
 10
1.5039341569
 20
0.3696984261
 10
1.5054366939
 20
0.398403664
 10
1.5068671278
 20
0.4288141921
 10
1.5082214039
 20
0.4608438084
 10
1.5094956833
 20
0.4944017215
 10
1.5106863541
 20
0.5293928079
 10
1.511790041
 20
0.5657178815
 10
1.5128036157
 20
0.6032739749
 10
1.5137242049
 20
0.6419546314
 10
1.5145491992
 20
0.6816502063
 10
1.51527626
 20
0.7222481784
 10
1.5159033264
 20
0.7636334681
 10
1.516428621
 20
0.8056887645
 10
1.5168506547
 20
0.8482948572
 10
1.5171682312
 20
0.8913309745
 10
1.5173804503
 20
0.9346751261
 10
1.5174867104
 20
0.9782044481
 10
1.5174867104
 20
1.0217955519
 10
1.5173804503
 20
1.0653248739
 10
1.5171682312
 20
1.1086690255
 10
1.5168506547
 20
1.1517051428
 10
1.516428621
 20
1.1943112355
 10
1.5159033264
 20
1.2363665319
 10
1.51527626
 20
1.2777518216
 10
1.5145491992
 20
1.3183497937
 10
1.5137242049
 20
1.3580453686
 10
1.5128036157
 20
1.3967260251
 10
1.511790041
 20
1.4342821185
 10
1.5106863541
 20
1.4706071921
 10
1.5094956833
 20
1.5055982785
 10
1.5082214039
 20
1.5391561916
 10
1.5068671278
 20
1.5711858079
 10
1.5054366939
 20
1.601596336
 10
1.5039341569
 20
1.6303015739
 10
1.5023637759
 20
1.6572201536
 10
1.5007300025
 20
1.6822757712
 10
1.4990374675
 20
1.7053974041
 10
1.4972909688
 20
1.7265195115
 10
1.495495457
 20
1.7455822203
 10
1.4936560216
 20
1.7625314953
 10
1.4917778767
 20
1.7773192919
 10
1.4898663462
 20
1.7899036926
 10
1.4879268484
 20
1.8002490254
 10
1.4859648811
 20
1.8083259654
 10
1.4839860057
 20
1.8141116177
 10
1.4819958316
 20
1.8175895821
 10
1.48
 20
1.81875
 10
1.4780041684
 20
1.8175895821
 10
1.4760139943
 20
1.8141116177
 10
1.4740351189
 20
1.8083259654
 10
1.4720731516
 20
1.8002490254
 10
1.4701336538
 20
1.7899036926
 10
1.4682221233
 20
1.7773192919
 10
1.4663439784
 20
1.7625314953
 10
1.464504543
 20
1.7455822203
 10
1.4627090312
 20
1.7265195115
 10
1.4609625325
 20
1.7053974041
 10
1.4592699975
 20
1.6822757712
 10
1.4576362241
 20
1.6572201536
 10
1.4560658431
 20
1.6303015739
 10
1.4545633061
 20
1.601596336
 10
1.4531328722
 20
1.5711858079
 10
1.4517785961
 20
1.5391561916
 10
1.4505043167
 20
1.5055982785
 10
1.4493136459
 20
1.4706071921
 10
1.448209959
 20
1.4342821185
 10
1.4471963843
 20
1.3967260251
 10
1.4462757951
 20
1.3580453686
 10
1.4454508008
 20
1.3183497937
 10
1.44472374
 20
1.2777518216
 10
1.4440966736
 20
1.2363665319
 10
1.443571379
 20
1.1943112355
 10
1.4431493453
 20
1.1517051428
 10
1.4428317688
 20
1.1086690255
 10
1.4426195497
 20
1.0653248739
 10
1.4425132896
 20
1.0217955519
 10
1.4425132896
 20
0.9782044481
 10
1.4426195497
 20
0.9346751261
 10
1.4428317688
 20
0.8913309745
 10
1.4431493453
 20
0.8482948572
 10
1.443571379
 20
0.8056887645
 10
1.4440966736
 20
0.7636334681
 10
1.44472374
 20
0.7222481784
 10
1.4454508008
 20
0.6816502063
 10
1.4462757951
 20
0.6419546314
 10
1.4471963843
 20
0.6032739749
 10
1.448209959
 20
0.5657178815
 10
1.4493136459
 20
0.5293928079
 10
1.4505043167
 20
0.4944017215
 10
1.4517785961
 20
0.4608438084
 10
1.4531328722
 20
0.4288141921
 10
1.4545633061
 20
0.398403664
 10
1.4560658431
 20
0.3696984261
 10
1.4576362241
 20
0.3427798464
 10
1.4592699975
 20
0.3177242288
 10
1.4609625325
 20
0.2946025959
 10
1.4627090312
 20
0.2734804885
 10
1.464504543
 20
0.2544177797
 10
1.4663439784
 20
0.2374685047
 10
1.4682221233
 20
0.2226807081
 10
1.4701336538
 20
0.2100963074
 10
1.4720731516
 20
0.1997509746
 10
1.4740351189
 20
0.1916740346
 10
1.4760139943
 20
0.1858883823
 10
1.4780041684
 20
0.1824104179
 10
1.48
 20
0.18125
  0
LWPOLYLINE
  5
72
330
1F
100
AcDbEntity
  8
0
  6
Continuous
 62
     7
370
    15
100
AcDbPolyline
 90
      119
 70
   128
 43
0.0
 10
1.06
 20
0.18125
 10
1.0619958316
 20
0.1824104179
 10
1.0639860057
 20
0.1858883823
 10
1.0659648811
 20
0.1916740346
 10
1.0679268484
 20
0.1997509746
 10
1.0698663462
 20
0.2100963074
 10
1.0717778767
 20
0.2226807081
 10
1.0736560216
 20
0.2374685047
 10
1.075495457
 20
0.2544177797
 10
1.0772909688
 20
0.2734804885
 10
1.0790374675
 20
0.2946025959
 10
1.0807300025
 20
0.3177242288
 10
1.0823637759
 20
0.3427798464
 10
1.0839341569
 20
0.3696984261
 10
1.0854366939
 20
0.398403664
 10
1.0868671278
 20
0.4288141921
 10
1.0882214039
 20
0.4608438084
 10
1.0894956833
 20
0.4944017215
 10
1.0906863541
 20
0.5293928079
 10
1.091790041
 20
0.5657178815
 10
1.0928036157
 20
0.6032739749
 10
1.0937242049
 20
0.6419546314
 10
1.0945491992
 20
0.6816502063
 10
1.09527626
 20
0.7222481784
 10
1.0959033264
 20
0.7636334681
 10
1.096428621
 20
0.8056887645
 10
1.0968506547
 20
0.8482948572
 10
1.0971682312
 20
0.8913309745
 10
1.0973804503
 20
0.9346751261
 10
1.0974867104
 20
0.9782044481
 10
1.0974867104
 20
1.0217955519
 10
1.0973804503
 20
1.0653248739
 10
1.0971682312
 20
1.1086690255
 10
1.0968506547
 20
1.1517051428
 10
1.096428621
 20
1.1943112355
 10
1.0959033264
 20
1.2363665319
 10
1.09527626
 20
1.2777518216
 10
1.0945491992
 20
1.3183497937
 10
1.0937242049
 20
1.3580453686
 10
1.0928036157
 20
1.3967260251
 10
1.091790041
 20
1.4342821185
 10
1.0906863541
 20
1.4706071921
 10
1.0894956833
 20
1.5055982785
 10
1.0882214039
 20
1.5391561916
 10
1.0868671278
 20
1.5711858079
 10
1.0854366939
 20
1.601596336
 10
1.0839341569
 20
1.6303015739
 10
1.0823637759
 20
1.6572201536
 10
1.0807300025
 20
1.6822757712
 10
1.0790374675
 20
1.7053974041
 10
1.0772909688
 20
1.7265195115
 10
1.075495457
 20
1.7455822203
 10
1.0736560216
 20
1.7625314953
 10
1.0717778767
 20
1.7773192919
 10
1.0698663462
 20
1.7899036926
 10
1.0679268484
 20
1.8002490254
 10
1.0659648811
 20
1.8083259654
 10
1.0639860057
 20
1.8141116177
 10
1.0619958316
 20
1.8175895821
 10
1.06
 20
1.81875
 10
1.0580041684
 20
1.8175895821
 10
1.0560139943
 20
1.8141116177
 10
1.0540351189
 20
1.8083259654
 10
1.0520731516
 20
1.8002490254
 10
1.0501336538
 20
1.7899036926
 10
1.0482221233
 20
1.7773192919
 10
1.0463439784
 20
1.7625314953
 10
1.044504543
 20
1.7455822203
 10
1.0427090312
 20
1.7265195115
 10
1.0409625325
 20
1.7053974041
 10
1.0392699975
 20
1.6822757712
 10
1.0376362241
 20
1.6572201536
 10
1.0360658431
 20
1.6303015739
 10
1.0345633061
 20
1.601596336
 10
1.0331328722
 20
1.5711858079
 10
1.0317785961
 20
1.5391561916
 10
1.0305043167
 20
1.5055982785
 10
1.0293136459
 20
1.4706071921
 10
1.028209959
 20
1.4342821185
 10
1.0271963843
 20
1.3967260251
 10
1.0262757951
 20
1.3580453686
 10
1.0254508008
 20
1.3183497937
 10
1.02472374
 20
1.2777518216
 10
1.0240966736
 20
1.2363665319
 10
1.023571379
 20
1.1943112355
 10
1.0231493453
 20
1.1517051428
 10
1.0228317688
 20
1.1086690255
 10
1.0226195497
 20
1.0653248739
 10
1.0225132896
 20
1.0217955519
 10
1.0225132896
 20
0.9782044481
 10
1.0226195497
 20
0.9346751261
 10
1.0228317688
 20
0.8913309745
 10
1.0231493453
 20
0.8482948572
 10
1.023571379
 20
0.8056887645
 10
1.0240966736
 20
0.7636334681
 10
1.02472374
 20
0.7222481784
 10
1.0254508008
 20
0.6816502063
 10
1.0262757951
 20
0.6419546314
 10
1.0271963843
 20
0.6032739749
 10
1.028209959
 20
0.5657178815
 10
1.0293136459
 20
0.5293928079
 10
1.0305043167
 20
0.4944017215
 10
1.0317785961
 20
0.4608438084
 10
1.0331328722
 20
0.4288141921
 10
1.0345633061
 20
0.398403664
 10
1.0360658431
 20
0.3696984261
 10
1.0376362241
 20
0.3427798464
 10
1.0392699975
 20
0.3177242288
 10
1.0409625325
 20
0.2946025959
 10
1.0427090312
 20
0.2734804885
 10
1.044504543
 20
0.2544177797
 10
1.0463439784
 20
0.2374685047
 10
1.0482221233
 20
0.2226807081
 10
1.0501336538
 20
0.2100963074
 10
1.0520731516
 20
0.1997509746
 10
1.0540351189
 20
0.1916740346
 10
1.0560139943
 20
0.1858883823
 10
1.0580041684
 20
0.1824104179
 10
1.06
 20
0.18125
  0
LWPOLYLINE
  5
73
330
1F
100
AcDbEntity
  8
0
  6
Continuous
 62
     7
370
    15
100
AcDbPolyline
 90
      119
 70
   128
 43
0.0
 10
0.64
 20
0.18125
 10
0.6419958316
 20
0.1824104179
 10
0.6439860057
 20
0.1858883823
 10
0.6459648811
 20
0.1916740346
 10
0.6479268484
 20
0.1997509746
 10
0.6498663462
 20
0.2100963074
 10
0.6517778767
 20
0.2226807081
 10
0.6536560216
 20
0.2374685047
 10
0.655495457
 20
0.2544177797
 10
0.6572909688
 20
0.2734804885
 10
0.6590374675
 20
0.2946025959
 10
0.6607300025
 20
0.3177242288
 10
0.6623637759
 20
0.3427798464
 10
0.6639341569
 20
0.3696984261
 10
0.6654366939
 20
0.398403664
 10
0.6668671278
 20
0.4288141921
 10
0.6682214039
 20
0.4608438084
 10
0.6694956833
 20
0.4944017215
 10
0.6706863541
 20
0.5293928079
 10
0.671790041
 20
0.5657178815
 10
0.6728036157
 20
0.6032739749
 10
0.6737242049
 20
0.6419546314
 10
0.6745491992
 20
0.6816502063
 10
0.67527626
 20
0.7222481784
 10
0.6759033264
 20
0.7636334681
 10
0.676428621
 20
0.8056887645
 10
0.6768506547
 20
0.8482948572
 10
0.6771682312
 20
0.8913309745
 10
0.6773804503
 20
0.9346751261
 10
0.6774867104
 20
0.9782044481
 10
0.6774867104
 20
1.0217955519
 10
0.6773804503
 20
1.0653248739
 10
0.6771682312
 20
1.1086690255
 10
0.6768506547
 20
1.1517051428
 10
0.676428621
 20
1.1943112355
 10
0.6759033264
 20
1.2363665319
 10
0.67527626
 20
1.2777518216
 10
0.6745491992
 20
1.3183497937
 10
0.6737242049
 20
1.3580453686
 10
0.6728036157
 20
1.3967260251
 10
0.671790041
 20
1.4342821185
 10
0.6706863541
 20
1.4706071921
 10
0.6694956833
 20
1.5055982785
 10
0.6682214039
 20
1.5391561916
 10
0.6668671278
 20
1.5711858079
 10
0.6654366939
 20
1.601596336
 10
0.6639341569
 20
1.6303015739
 10
0.6623637759
 20
1.6572201536
 10
0.6607300025
 20
1.6822757712
 10
0.6590374675
 20
1.7053974041
 10
0.6572909688
 20
1.7265195115
 10
0.655495457
 20
1.7455822203
 10
0.6536560216
 20
1.7625314953
 10
0.6517778767
 20
1.7773192919
 10
0.6498663462
 20
1.7899036926
 10
0.6479268484
 20
1.8002490254
 10
0.6459648811
 20
1.8083259654
 10
0.6439860057
 20
1.8141116177
 10
0.6419958316
 20
1.8175895821
 10
0.64
 20
1.81875
 10
0.6380041684
 20
1.8175895821
 10
0.6360139943
 20
1.8141116177
 10
0.6340351189
 20
1.8083259654
 10
0.6320731516
 20
1.8002490254
 10
0.6301336538
 20
1.7899036926
 10
0.6282221233
 20
1.7773192919
 10
0.6263439784
 20
1.7625314953
 10
0.624504543
 20
1.7455822203
 10
0.6227090312
 20
1.7265195115
 10
0.6209625325
 20
1.7053974041
 10
0.6192699975
 20
1.6822757712
 10
0.6176362241
 20
1.6572201536
 10
0.6160658431
 20
1.6303015739
 10
0.6145633061
 20
1.601596336
 10
0.6131328722
 20
1.5711858079
 10
0.6117785961
 20
1.5391561916
 10
0.6105043167
 20
1.5055982785
 10
0.6093136459
 20
1.4706071921
 10
0.608209959
 20
1.4342821185
 10
0.6071963843
 20
1.3967260251
 10
0.6062757951
 20
1.3580453686
 10
0.6054508008
 20
1.3183497937
 10
0.60472374
 20
1.2777518216
 10
0.6040966736
 20
1.2363665319
 10
0.603571379
 20
1.1943112355
 10
0.6031493453
 20
1.1517051428
 10
0.6028317688
 20
1.1086690255
 10
0.6026195497
 20
1.0653248739
 10
0.6025132896
 20
1.0217955519
 10
0.6025132896
 20
0.9782044481
 10
0.6026195497
 20
0.9346751261
 10
0.6028317688
 20
0.8913309745
 10
0.6031493453
 20
0.8482948572
 10
0.603571379
 20
0.8056887645
 10
0.6040966736
 20
0.7636334681
 10
0.60472374
 20
0.7222481784
 10
0.6054508008
 20
0.6816502063
 10
0.6062757951
 20
0.6419546314
 10
0.6071963843
 20
0.6032739749
 10
0.608209959
 20
0.5657178815
 10
0.6093136459
 20
0.5293928079
 10
0.6105043167
 20
0.4944017215
 10
0.6117785961
 20
0.4608438084
 10
0.6131328722
 20
0.4288141921
 10
0.6145633061
 20
0.398403664
 10
0.6160658431
 20
0.3696984261
 10
0.6176362241
 20
0.3427798464
 10
0.6192699975
 20
0.3177242288
 10
0.6209625325
 20
0.2946025959
 10
0.6227090312
 20
0.2734804885
 10
0.624504543
 20
0.2544177797
 10
0.6263439784
 20
0.2374685047
 10
0.6282221233
 20
0.2226807081
 10
0.6301336538
 20
0.2100963074
 10
0.6320731516
 20
0.1997509746
 10
0.6340351189
 20
0.1916740346
 10
0.6360139943
 20
0.1858883823
 10
0.6380041684
 20
0.1824104179
 10
0.64
 20
0.18125
  0
LWPOLYLINE
  5
85
330
1F
100
AcDbEntity
  8
0
  6
Continuous
 62
     7
370
    15
100
AcDbPolyline
 90
       60
 70
   128
 43
0.0
 10
0.57
 20
2.0
 10
0.5699503943
 20
1.9564243443
 10
0.569801718
 20
1.9129722086
 10
0.5695543924
 20
1.8697667626
 10
0.5692091186
 20
1.8269304769
 10
0.5687668754
 20
1.7845847755
 10
0.5682289163
 20
1.742849692
 10
0.5675967662
 20
1.701843529
 10
0.566872217
 20
1.6616825229
 10
0.5660573226
 20
1.6224805144
 10
0.5651543928
 20
1.584348626
 10
0.5641659872
 20
1.5473949465
 10
0.5630949073
 20
1.5117242252
 10
0.5619441894
 20
1.4774375746
 10
0.5607170953
 20
1.4446321841
 10
0.5594171032
 20
1.4134010439
 10
0.5580478983
 20
1.3838326822
 10
0.5566133615
 20
1.3560109137
 10
0.5551175594
 20
1.3300146022
 10
0.5535647318
 20
1.3059174372
 10
0.5519592805
 20
1.2837877245
 10
0.5503057562
 20
1.2636881934
 10
0.5486088461
 20
1.2456758181
 10
0.5468733603
 20
1.2298016567
 10
0.5451042182
 20
1.2161107061
 10
0.5433064345
 20
1.2046417749
 10
0.5414851053
 20
1.195427373
 10
0.5396453935
 20
1.1884936196
 10
0.5377925137
 20
1.1838601692
 10
0.5359317183
 20
1.1815401559
 10
0.5340682817
 20
1.1815401559
 10
0.5322074863
 20
1.1838601692
 10
0.5303546065
 20
1.1884936196
 10
0.5285148947
 20
1.195427373
 10
0.5266935655
 20
1.2046417749
 10
0.5248957818
 20
1.2161107061
 10
0.5231266397
 20
1.2298016567
 10
0.5213911539
 20
1.2456758181
 10
0.5196942438
 20
1.2636881934
 10
0.5180407195
 20
1.2837877245
 10
0.5164352682
 20
1.3059174372
 10
0.5148824406
 20
1.3300146022
 10
0.5133866385
 20
1.3560109137
 10
0.5119521017
 20
1.3838326822
 10
0.5105828968
 20
1.4134010439
 10
0.5092829047
 20
1.4446321841
 10
0.5080558106
 20
1.4774375746
 10
0.5069050927
 20
1.5117242252
 10
0.5058340128
 20
1.5473949465
 10
0.5048456072
 20
1.584348626
 10
0.5039426774
 20
1.6224805144
 10
0.503127783
 20
1.6616825229
 10
0.5024032338
 20
1.701843529
 10
0.5017710837
 20
1.742849692
 10
0.5012331246
 20
1.7845847755
 10
0.5007908814
 20
1.8269304769
 10
0.5004456076
 20
1.8697667626
 10
0.500198282
 20
1.9129722086
 10
0.5000496057
 20
1.9564243443
 10
0.5
 20
2.0
  0
LWPOLYLINE
  5
87
330
1F
100
AcDbEntity
  8
0
  6
Continuous
 62
     7
370
    15
100
AcDbPolyline
 90
       60
 70
   128
 43
0.0
 10
0.78
 20
2.0
 10
0.7799503943
 20
1.9564243443
 10
0.779801718
 20
1.9129722086
 10
0.7795543924
 20
1.8697667626
 10
0.7792091186
 20
1.8269304769
 10
0.7787668754
 20
1.7845847755
 10
0.7782289163
 20
1.742849692
 10
0.7775967662
 20
1.701843529
 10
0.776872217
 20
1.6616825229
 10
0.7760573226
 20
1.6224805144
 10
0.7751543928
 20
1.584348626
 10
0.7741659872
 20
1.5473949465
 10
0.7730949073
 20
1.5117242252
 10
0.7719441894
 20
1.4774375746
 10
0.7707170953
 20
1.4446321841
 10
0.7694171032
 20
1.4134010439
 10
0.7680478983
 20
1.3838326822
 10
0.7666133615
 20
1.3560109137
 10
0.7651175594
 20
1.3300146022
 10
0.7635647318
 20
1.3059174372
 10
0.7619592805
 20
1.2837877245
 10
0.7603057562
 20
1.2636881934
 10
0.7586088461
 20
1.2456758181
 10
0.7568733603
 20
1.2298016567
 10
0.7551042182
 20
1.2161107061
 10
0.7533064345
 20
1.2046417749
 10
0.7514851053
 20
1.195427373
 10
0.7496453935
 20
1.1884936196
 10
0.7477925137
 20
1.1838601692
 10
0.7459317183
 20
1.1815401559
 10
0.7440682817
 20
1.1815401559
 10
0.7422074863
 20
1.1838601692
 10
0.7403546065
 20
1.1884936196
 10
0.7385148947
 20
1.195427373
 10
0.7366935655
 20
1.2046417749
 10
0.7348957818
 20
1.2161107061
 10
0.7331266397
 20
1.2298016567
 10
0.7313911539
 20
1.2456758181
 10
0.7296942438
 20
1.2636881934
 10
0.7280407195
 20
1.2837877245
 10
0.7264352682
 20
1.3059174372
 10
0.7248824406
 20
1.3300146022
 10
0.7233866385
 20
1.3560109137
 10
0.7219521017
 20
1.3838326822
 10
0.7205828968
 20
1.4134010439
 10
0.7192829047
 20
1.4446321841
 10
0.7180558106
 20
1.4774375746
 10
0.7169050927
 20
1.5117242252
 10
0.7158340128
 20
1.5473949465
 10
0.7148456072
 20
1.584348626
 10
0.7139426774
 20
1.6224805144
 10
0.713127783
 20
1.6616825229
 10
0.7124032338
 20
1.701843529
 10
0.7117710837
 20
1.742849692
 10
0.7112331246
 20
1.7845847755
 10
0.7107908814
 20
1.8269304769
 10
0.7104456076
 20
1.8697667626
 10
0.710198282
 20
1.9129722086
 10
0.7100496057
 20
1.9564243443
 10
0.71
 20
2.0
  0
LWPOLYLINE
  5
89
330
1F
100
AcDbEntity
  8
0
  6
Continuous
 62
     7
370
    15
100
AcDbPolyline
 90
       60
 70
   128
 43
0.0
 10
0.99
 20
2.0
 10
0.9899503943
 20
1.9564243443
 10
0.989801718
 20
1.9129722086
 10
0.9895543924
 20
1.8697667626
 10
0.9892091186
 20
1.8269304769
 10
0.9887668754
 20
1.7845847755
 10
0.9882289163
 20
1.742849692
 10
0.9875967662
 20
1.701843529
 10
0.986872217
 20
1.6616825229
 10
0.9860573226
 20
1.6224805144
 10
0.9851543928
 20
1.584348626
 10
0.9841659872
 20
1.5473949465
 10
0.9830949073
 20
1.5117242252
 10
0.9819441894
 20
1.4774375746
 10
0.9807170953
 20
1.4446321841
 10
0.9794171032
 20
1.4134010439
 10
0.9780478983
 20
1.3838326822
 10
0.9766133615
 20
1.3560109137
 10
0.9751175594
 20
1.3300146022
 10
0.9735647318
 20
1.3059174372
 10
0.9719592805
 20
1.2837877245
 10
0.9703057562
 20
1.2636881934
 10
0.9686088461
 20
1.2456758181
 10
0.9668733603
 20
1.2298016567
 10
0.9651042182
 20
1.2161107061
 10
0.9633064345
 20
1.2046417749
 10
0.9614851053
 20
1.195427373
 10
0.9596453935
 20
1.1884936196
 10
0.9577925137
 20
1.1838601692
 10
0.9559317183
 20
1.1815401559
 10
0.9540682817
 20
1.1815401559
 10
0.9522074863
 20
1.1838601692
 10
0.9503546065
 20
1.1884936196
 10
0.9485148947
 20
1.195427373
 10
0.9466935655
 20
1.2046417749
 10
0.9448957818
 20
1.2161107061
 10
0.9431266397
 20
1.2298016567
 10
0.9413911539
 20
1.2456758181
 10
0.9396942438
 20
1.2636881934
 10
0.9380407195
 20
1.2837877245
 10
0.9364352682
 20
1.3059174372
 10
0.9348824406
 20
1.3300146022
 10
0.9333866385
 20
1.3560109137
 10
0.9319521017
 20
1.3838326822
 10
0.9305828968
 20
1.4134010439
 10
0.9292829047
 20
1.4446321841
 10
0.9280558106
 20
1.4774375746
 10
0.9269050927
 20
1.5117242252
 10
0.9258340128
 20
1.5473949465
 10
0.9248456072
 20
1.584348626
 10
0.9239426774
 20
1.6224805144
 10
0.923127783
 20
1.6616825229
 10
0.9224032338
 20
1.701843529
 10
0.9217710837
 20
1.742849692
 10
0.9212331246
 20
1.7845847755
 10
0.9207908814
 20
1.8269304769
 10
0.9204456076
 20
1.8697667626
 10
0.920198282
 20
1.9129722086
 10
0.9200496057
 20
1.9564243443
 10
0.92
 20
2.0
  0
LWPOLYLINE
  5
8B
330
1F
100
AcDbEntity
  8
0
  6
Continuous
 62
     7
370
    15
100
AcDbPolyline
 90
       60
 70
   128
 43
0.0
 10
1.2
 20
2.0
 10
1.1999503943
 20
1.9564243443
 10
1.199801718
 20
1.9129722086
 10
1.1995543924
 20
1.8697667626
 10
1.1992091186
 20
1.8269304769
 10
1.1987668754
 20
1.7845847755
 10
1.1982289163
 20
1.742849692
 10
1.1975967662
 20
1.701843529
 10
1.196872217
 20
1.6616825229
 10
1.1960573226
 20
1.6224805144
 10
1.1951543928
 20
1.584348626
 10
1.1941659872
 20
1.5473949465
 10
1.1930949073
 20
1.5117242252
 10
1.1919441894
 20
1.4774375746
 10
1.1907170953
 20
1.4446321841
 10
1.1894171032
 20
1.4134010439
 10
1.1880478983
 20
1.3838326822
 10
1.1866133615
 20
1.3560109137
 10
1.1851175594
 20
1.3300146022
 10
1.1835647318
 20
1.3059174372
 10
1.1819592805
 20
1.2837877245
 10
1.1803057562
 20
1.2636881934
 10
1.1786088461
 20
1.2456758181
 10
1.1768733603
 20
1.2298016567
 10
1.1751042182
 20
1.2161107061
 10
1.1733064345
 20
1.2046417749
 10
1.1714851053
 20
1.195427373
 10
1.1696453935
 20
1.1884936196
 10
1.1677925137
 20
1.1838601692
 10
1.1659317183
 20
1.1815401559
 10
1.1640682817
 20
1.1815401559
 10
1.1622074863
 20
1.1838601692
 10
1.1603546065
 20
1.1884936196
 10
1.1585148947
 20
1.195427373
 10
1.1566935655
 20
1.2046417749
 10
1.1548957818
 20
1.2161107061
 10
1.1531266397
 20
1.2298016567
 10
1.1513911539
 20
1.2456758181
 10
1.1496942438
 20
1.2636881934
 10
1.1480407195
 20
1.2837877245
 10
1.1464352682
 20
1.3059174372
 10
1.1448824406
 20
1.3300146022
 10
1.1433866385
 20
1.3560109137
 10
1.1419521017
 20
1.3838326822
 10
1.1405828968
 20
1.4134010439
 10
1.1392829047
 20
1.4446321841
 10
1.1380558106
 20
1.4774375746
 10
1.1369050927
 20
1.5117242252
 10
1.1358340128
 20
1.5473949465
 10
1.1348456072
 20
1.584348626
 10
1.1339426774
 20
1.6224805144
 10
1.133127783
 20
1.6616825229
 10
1.1324032338
 20
1.701843529
 10
1.1317710837
 20
1.742849692
 10
1.1312331246
 20
1.7845847755
 10
1.1307908814
 20
1.8269304769
 10
1.1304456076
 20
1.8697667626
 10
1.130198282
 20
1.9129722086
 10
1.1300496057
 20
1.9564243443
 10
1.13
 20
2.0
  0
LWPOLYLINE
  5
8D
330
1F
100
AcDbEntity
  8
0
  6
Continuous
 62
     7
370
    15
100
AcDbPolyline
 90
       60
 70
   128
 43
0.0
 10
1.41
 20
2.0
 10
1.4099503943
 20
1.9564243443
 10
1.409801718
 20
1.9129722086
 10
1.4095543924
 20
1.8697667626
 10
1.4092091186
 20
1.8269304769
 10
1.4087668754
 20
1.7845847755
 10
1.4082289163
 20
1.742849692
 10
1.4075967662
 20
1.701843529
 10
1.406872217
 20
1.6616825229
 10
1.4060573226
 20
1.6224805144
 10
1.4051543928
 20
1.584348626
 10
1.4041659872
 20
1.5473949465
 10
1.4030949073
 20
1.5117242252
 10
1.4019441894
 20
1.4774375746
 10
1.4007170953
 20
1.4446321841
 10
1.3994171032
 20
1.4134010439
 10
1.3980478983
 20
1.3838326822
 10
1.3966133615
 20
1.3560109137
 10
1.3951175594
 20
1.3300146022
 10
1.3935647318
 20
1.3059174372
 10
1.3919592805
 20
1.2837877245
 10
1.3903057562
 20
1.2636881934
 10
1.3886088461
 20
1.2456758181
 10
1.3868733603
 20
1.2298016567
 10
1.3851042182
 20
1.2161107061
 10
1.3833064345
 20
1.2046417749
 10
1.3814851053
 20
1.195427373
 10
1.3796453935
 20
1.1884936196
 10
1.3777925137
 20
1.1838601692
 10
1.3759317183
 20
1.1815401559
 10
1.3740682817
 20
1.1815401559
 10
1.3722074863
 20
1.1838601692
 10
1.3703546065
 20
1.1884936196
 10
1.3685148947
 20
1.195427373
 10
1.3666935655
 20
1.2046417749
 10
1.3648957818
 20
1.2161107061
 10
1.3631266397
 20
1.2298016567
 10
1.3613911539
 20
1.2456758181
 10
1.3596942438
 20
1.2636881934
 10
1.3580407195
 20
1.2837877245
 10
1.3564352682
 20
1.3059174372
 10
1.3548824406
 20
1.3300146022
 10
1.3533866385
 20
1.3560109137
 10
1.3519521017
 20
1.3838326822
 10
1.3505828968
 20
1.4134010439
 10
1.3492829047
 20
1.4446321841
 10
1.3480558106
 20
1.4774375746
 10
1.3469050927
 20
1.5117242252
 10
1.3458340128
 20
1.5473949465
 10
1.3448456072
 20
1.584348626
 10
1.3439426774
 20
1.6224805144
 10
1.343127783
 20
1.6616825229
 10
1.3424032338
 20
1.701843529
 10
1.3417710837
 20
1.742849692
 10
1.3412331246
 20
1.7845847755
 10
1.3407908814
 20
1.8269304769
 10
1.3404456076
 20
1.8697667626
 10
1.340198282
 20
1.9129722086
 10
1.3400496057
 20
1.9564243443
 10
1.34
 20
2.0
  0
LWPOLYLINE
  5
8F
330
1F
100
AcDbEntity
  8
0
  6
Continuous
 62
     7
370
    15
100
AcDbPolyline
 90
       60
 70
   128
 43
0.0
 10
1.62
 20
2.0
 10
1.6199503943
 20
1.9564243443
 10
1.619801718
 20
1.9129722086
 10
1.6195543924
 20
1.8697667626
 10
1.6192091186
 20
1.8269304769
 10
1.6187668754
 20
1.7845847755
 10
1.6182289163
 20
1.742849692
 10
1.6175967662
 20
1.701843529
 10
1.616872217
 20
1.6616825229
 10
1.6160573226
 20
1.6224805144
 10
1.6151543928
 20
1.584348626
 10
1.6141659872
 20
1.5473949465
 10
1.6130949073
 20
1.5117242252
 10
1.6119441894
 20
1.4774375746
 10
1.6107170953
 20
1.4446321841
 10
1.6094171032
 20
1.4134010439
 10
1.6080478983
 20
1.3838326822
 10
1.6066133615
 20
1.3560109137
 10
1.6051175594
 20
1.3300146022
 10
1.6035647318
 20
1.3059174372
 10
1.6019592805
 20
1.2837877245
 10
1.6003057562
 20
1.2636881934
 10
1.5986088461
 20
1.2456758181
 10
1.5968733603
 20
1.2298016567
 10
1.5951042182
 20
1.2161107061
 10
1.5933064345
 20
1.2046417749
 10
1.5914851053
 20
1.195427373
 10
1.5896453935
 20
1.1884936196
 10
1.5877925137
 20
1.1838601692
 10
1.5859317183
 20
1.1815401559
 10
1.5840682817
 20
1.1815401559
 10
1.5822074863
 20
1.1838601692
 10
1.5803546065
 20
1.1884936196
 10
1.5785148947
 20
1.195427373
 10
1.5766935655
 20
1.2046417749
 10
1.5748957818
 20
1.2161107061
 10
1.5731266397
 20
1.2298016567
 10
1.5713911539
 20
1.2456758181
 10
1.5696942438
 20
1.2636881934
 10
1.5680407195
 20
1.2837877245
 10
1.5664352682
 20
1.3059174372
 10
1.5648824406
 20
1.3300146022
 10
1.5633866385
 20
1.3560109137
 10
1.5619521017
 20
1.3838326822
 10
1.5605828968
 20
1.4134010439
 10
1.5592829047
 20
1.4446321841
 10
1.5580558106
 20
1.4774375746
 10
1.5569050927
 20
1.5117242252
 10
1.5558340128
 20
1.5473949465
 10
1.5548456072
 20
1.584348626
 10
1.5539426774
 20
1.6224805144
 10
1.553127783
 20
1.6616825229
 10
1.5524032338
 20
1.701843529
 10
1.5517710837
 20
1.742849692
 10
1.5512331246
 20
1.7845847755
 10
1.5507908814
 20
1.8269304769
 10
1.5504456076
 20
1.8697667626
 10
1.550198282
 20
1.9129722086
 10
1.5500496057
 20
1.9564243443
 10
1.55
 20
2.0
  0
LWPOLYLINE
  5
91
330
1F
100
AcDbEntity
  8
0
  6
Continuous
 62
     7
370
    15
100
AcDbPolyline
 90
       60
 70
   128
 43
0.0
 10
1.83
 20
2.0
 10
1.8299503943
 20
1.9564243443
 10
1.829801718
 20
1.9129722086
 10
1.8295543924
 20
1.8697667626
 10
1.8292091186
 20
1.8269304769
 10
1.8287668754
 20
1.7845847755
 10
1.8282289163
 20
1.742849692
 10
1.8275967662
 20
1.701843529
 10
1.826872217
 20
1.6616825229
 10
1.8260573226
 20
1.6224805144
 10
1.8251543928
 20
1.584348626
 10
1.8241659872
 20
1.5473949465
 10
1.8230949073
 20
1.5117242252
 10
1.8219441894
 20
1.4774375746
 10
1.8207170953
 20
1.4446321841
 10
1.8194171032
 20
1.4134010439
 10
1.8180478983
 20
1.3838326822
 10
1.8166133615
 20
1.3560109137
 10
1.8151175594
 20
1.3300146022
 10
1.8135647318
 20
1.3059174372
 10
1.8119592805
 20
1.2837877245
 10
1.8103057562
 20
1.2636881934
 10
1.8086088461
 20
1.2456758181
 10
1.8068733603
 20
1.2298016567
 10
1.8051042182
 20
1.2161107061
 10
1.8033064345
 20
1.2046417749
 10
1.8014851053
 20
1.195427373
 10
1.7996453935
 20
1.1884936196
 10
1.7977925137
 20
1.1838601692
 10
1.7959317183
 20
1.1815401559
 10
1.7940682817
 20
1.1815401559
 10
1.7922074863
 20
1.1838601692
 10
1.7903546065
 20
1.1884936196
 10
1.7885148947
 20
1.195427373
 10
1.7866935655
 20
1.2046417749
 10
1.7848957818
 20
1.2161107061
 10
1.7831266397
 20
1.2298016567
 10
1.7813911539
 20
1.2456758181
 10
1.7796942438
 20
1.2636881934
 10
1.7780407195
 20
1.2837877245
 10
1.7764352682
 20
1.3059174372
 10
1.7748824406
 20
1.3300146022
 10
1.7733866385
 20
1.3560109137
 10
1.7719521017
 20
1.3838326822
 10
1.7705828968
 20
1.4134010439
 10
1.7692829047
 20
1.4446321841
 10
1.7680558106
 20
1.4774375746
 10
1.7669050927
 20
1.5117242252
 10
1.7658340128
 20
1.5473949465
 10
1.7648456072
 20
1.584348626
 10
1.7639426774
 20
1.6224805144
 10
1.763127783
 20
1.6616825229
 10
1.7624032338
 20
1.701843529
 10
1.7617710837
 20
1.742849692
 10
1.7612331246
 20
1.7845847755
 10
1.7607908814
 20
1.8269304769
 10
1.7604456076
 20
1.8697667626
 10
1.760198282
 20
1.9129722086
 10
1.7600496057
 20
1.9564243443
 10
1.76
 20
2.0
  0
LWPOLYLINE
  5
93
330
1F
100
AcDbEntity
  8
0
  6
Continuous
 62
     7
370
    15
100
AcDbPolyline
 90
       60
 70
   128
 43
0.0
 10
2.04
 20
2.0
 10
2.0399503943
 20
1.9564243443
 10
2.039801718
 20
1.9129722086
 10
2.0395543924
 20
1.8697667626
 10
2.0392091186
 20
1.8269304769
 10
2.0387668754
 20
1.7845847755
 10
2.0382289163
 20
1.742849692
 10
2.0375967662
 20
1.701843529
 10
2.036872217
 20
1.6616825229
 10
2.0360573226
 20
1.6224805144
 10
2.0351543928
 20
1.584348626
 10
2.0341659872
 20
1.5473949465
 10
2.0330949073
 20
1.5117242252
 10
2.0319441894
 20
1.4774375746
 10
2.0307170953
 20
1.4446321841
 10
2.0294171032
 20
1.4134010439
 10
2.0280478983
 20
1.3838326822
 10
2.0266133615
 20
1.3560109137
 10
2.0251175594
 20
1.3300146022
 10
2.0235647318
 20
1.3059174372
 10
2.0219592805
 20
1.2837877245
 10
2.0203057562
 20
1.2636881934
 10
2.0186088461
 20
1.2456758181
 10
2.0168733603
 20
1.2298016567
 10
2.0151042182
 20
1.2161107061
 10
2.0133064345
 20
1.2046417749
 10
2.0114851053
 20
1.195427373
 10
2.0096453935
 20
1.1884936196
 10
2.0077925137
 20
1.1838601692
 10
2.0059317183
 20
1.1815401559
 10
2.0040682817
 20
1.1815401559
 10
2.0022074863
 20
1.1838601692
 10
2.0003546065
 20
1.1884936196
 10
1.9985148947
 20
1.195427373
 10
1.9966935655
 20
1.2046417749
 10
1.9948957818
 20
1.2161107061
 10
1.9931266397
 20
1.2298016567
 10
1.9913911539
 20
1.2456758181
 10
1.9896942438
 20
1.2636881934
 10
1.9880407195
 20
1.2837877245
 10
1.9864352682
 20
1.3059174372
 10
1.9848824406
 20
1.3300146022
 10
1.9833866385
 20
1.3560109137
 10
1.9819521017
 20
1.3838326822
 10
1.9805828968
 20
1.4134010439
 10
1.9792829047
 20
1.4446321841
 10
1.9780558106
 20
1.4774375746
 10
1.9769050927
 20
1.5117242252
 10
1.9758340128
 20
1.5473949465
 10
1.9748456072
 20
1.584348626
 10
1.9739426774
 20
1.6224805144
 10
1.973127783
 20
1.6616825229
 10
1.9724032338
 20
1.701843529
 10
1.9717710837
 20
1.742849692
 10
1.9712331246
 20
1.7845847755
 10
1.9707908814
 20
1.8269304769
 10
1.9704456076
 20
1.8697667626
 10
1.970198282
 20
1.9129722086
 10
1.9700496057
 20
1.9564243443
 10
1.97
 20
2.0
  0
LWPOLYLINE
  5
95
330
1F
100
AcDbEntity
  8
0
  6
Continuous
 62
     7
370
    15
100
AcDbPolyline
 90
       60
 70
   128
 43
0.0
 10
2.25
 20
2.0
 10
2.2499503943
 20
1.9564243443
 10
2.249801718
 20
1.9129722086
 10
2.2495543924
 20
1.8697667626
 10
2.2492091186
 20
1.8269304769
 10
2.2487668754
 20
1.7845847755
 10
2.2482289163
 20
1.742849692
 10
2.2475967662
 20
1.701843529
 10
2.246872217
 20
1.6616825229
 10
2.2460573226
 20
1.6224805144
 10
2.2451543928
 20
1.584348626
 10
2.2441659872
 20
1.5473949465
 10
2.2430949073
 20
1.5117242252
 10
2.2419441894
 20
1.4774375746
 10
2.2407170953
 20
1.4446321841
 10
2.2394171032
 20
1.4134010439
 10
2.2380478983
 20
1.3838326822
 10
2.2366133615
 20
1.3560109137
 10
2.2351175594
 20
1.3300146022
 10
2.2335647318
 20
1.3059174372
 10
2.2319592805
 20
1.2837877245
 10
2.2303057562
 20
1.2636881934
 10
2.2286088461
 20
1.2456758181
 10
2.2268733603
 20
1.2298016567
 10
2.2251042182
 20
1.2161107061
 10
2.2233064345
 20
1.2046417749
 10
2.2214851053
 20
1.195427373
 10
2.2196453935
 20
1.1884936196
 10
2.2177925137
 20
1.1838601692
 10
2.2159317183
 20
1.1815401559
 10
2.2140682817
 20
1.1815401559
 10
2.2122074863
 20
1.1838601692
 10
2.2103546065
 20
1.1884936196
 10
2.2085148947
 20
1.195427373
 10
2.2066935655
 20
1.2046417749
 10
2.2048957818
 20
1.2161107061
 10
2.2031266397
 20
1.2298016567
 10
2.2013911539
 20
1.2456758181
 10
2.1996942438
 20
1.2636881934
 10
2.1980407195
 20
1.2837877245
 10
2.1964352682
 20
1.3059174372
 10
2.1948824406
 20
1.3300146022
 10
2.1933866385
 20
1.3560109137
 10
2.1919521017
 20
1.3838326822
 10
2.1905828968
 20
1.4134010439
 10
2.1892829047
 20
1.4446321841
 10
2.1880558106
 20
1.4774375746
 10
2.1869050927
 20
1.5117242252
 10
2.1858340128
 20
1.5473949465
 10
2.1848456072
 20
1.584348626
 10
2.1839426774
 20
1.6224805144
 10
2.183127783
 20
1.6616825229
 10
2.1824032338
 20
1.701843529
 10
2.1817710837
 20
1.742849692
 10
2.1812331246
 20
1.7845847755
 10
2.1807908814
 20
1.8269304769
 10
2.1804456076
 20
1.8697667626
 10
2.180198282
 20
1.9129722086
 10
2.1800496057
 20
1.9564243443
 10
2.18
 20
2.0
  0
LWPOLYLINE
  5
99
330
1F
100
AcDbEntity
  8
0
  6
Continuous
 62
     7
370
    15
100
AcDbPolyline
 90
       60
 70
   128
 43
0.0
 10
2.18
 20
0.0
 10
2.1800496057
 20
0.0435756557
 10
2.180198282
 20
0.0870277914
 10
2.1804456076
 20
0.1302332374
 10
2.1807908814
 20
0.1730695231
 10
2.1812331246
 20
0.2154152245
 10
2.1817710837
 20
0.257150308
 10
2.1824032338
 20
0.298156471
 10
2.183127783
 20
0.3383174771
 10
2.1839426774
 20
0.3775194856
 10
2.1848456072
 20
0.415651374
 10
2.1858340128
 20
0.4526050535
 10
2.1869050927
 20
0.4882757748
 10
2.1880558106
 20
0.5225624254
 10
2.1892829047
 20
0.5553678159
 10
2.1905828968
 20
0.5865989561
 10
2.1919521017
 20
0.6161673178
 10
2.1933866385
 20
0.6439890863
 10
2.1948824406
 20
0.6699853978
 10
2.1964352682
 20
0.6940825628
 10
2.1980407195
 20
0.7162122755
 10
2.1996942438
 20
0.7363118066
 10
2.2013911539
 20
0.7543241819
 10
2.2031266397
 20
0.7701983433
 10
2.2048957818
 20
0.7838892939
 10
2.2066935655
 20
0.7953582251
 10
2.2085148947
 20
0.804572627
 10
2.2103546065
 20
0.8115063804
 10
2.2122074863
 20
0.8161398308
 10
2.2140682817
 20
0.8184598441
 10
2.2159317183
 20
0.8184598441
 10
2.2177925137
 20
0.8161398308
 10
2.2196453935
 20
0.8115063804
 10
2.2214851053
 20
0.804572627
 10
2.2233064345
 20
0.7953582251
 10
2.2251042182
 20
0.7838892939
 10
2.2268733603
 20
0.7701983433
 10
2.2286088461
 20
0.7543241819
 10
2.2303057562
 20
0.7363118066
 10
2.2319592805
 20
0.7162122755
 10
2.2335647318
 20
0.6940825628
 10
2.2351175594
 20
0.6699853978
 10
2.2366133615
 20
0.6439890863
 10
2.2380478983
 20
0.6161673178
 10
2.2394171032
 20
0.5865989561
 10
2.2407170953
 20
0.5553678159
 10
2.2419441894
 20
0.5225624254
 10
2.2430949073
 20
0.4882757748
 10
2.2441659872
 20
0.4526050535
 10
2.2451543928
 20
0.415651374
 10
2.2460573226
 20
0.3775194856
 10
2.246872217
 20
0.3383174771
 10
2.2475967662
 20
0.298156471
 10
2.2482289163
 20
0.257150308
 10
2.2487668754
 20
0.2154152245
 10
2.2492091186
 20
0.1730695231
 10
2.2495543924
 20
0.1302332374
 10
2.249801718
 20
0.0870277914
 10
2.2499503943
 20
0.0435756557
 10
2.25
 20
0.0
  0
LWPOLYLINE
  5
9B
330
1F
100
AcDbEntity
  8
0
  6
Continuous
 62
     7
370
    15
100
AcDbPolyline
 90
       60
 70
   128
 43
0.0
 10
1.97
 20
0.0
 10
1.9700496057
 20
0.0435756557
 10
1.970198282
 20
0.0870277914
 10
1.9704456076
 20
0.1302332374
 10
1.9707908814
 20
0.1730695231
 10
1.9712331246
 20
0.2154152245
 10
1.9717710837
 20
0.257150308
 10
1.9724032338
 20
0.298156471
 10
1.973127783
 20
0.3383174771
 10
1.9739426774
 20
0.3775194856
 10
1.9748456072
 20
0.415651374
 10
1.9758340128
 20
0.4526050535
 10
1.9769050927
 20
0.4882757748
 10
1.9780558106
 20
0.5225624254
 10
1.9792829047
 20
0.5553678159
 10
1.9805828968
 20
0.5865989561
 10
1.9819521017
 20
0.6161673178
 10
1.9833866385
 20
0.6439890863
 10
1.9848824406
 20
0.6699853978
 10
1.9864352682
 20
0.6940825628
 10
1.9880407195
 20
0.7162122755
 10
1.9896942438
 20
0.7363118066
 10
1.9913911539
 20
0.7543241819
 10
1.9931266397
 20
0.7701983433
 10
1.9948957818
 20
0.7838892939
 10
1.9966935655
 20
0.7953582251
 10
1.9985148947
 20
0.804572627
 10
2.0003546065
 20
0.8115063804
 10
2.0022074863
 20
0.8161398308
 10
2.0040682817
 20
0.8184598441
 10
2.0059317183
 20
0.8184598441
 10
2.0077925137
 20
0.8161398308
 10
2.0096453935
 20
0.8115063804
 10
2.0114851053
 20
0.804572627
 10
2.0133064345
 20
0.7953582251
 10
2.0151042182
 20
0.7838892939
 10
2.0168733603
 20
0.7701983433
 10
2.0186088461
 20
0.7543241819
 10
2.0203057562
 20
0.7363118066
 10
2.0219592805
 20
0.7162122755
 10
2.0235647318
 20
0.6940825628
 10
2.0251175594
 20
0.6699853978
 10
2.0266133615
 20
0.6439890863
 10
2.0280478983
 20
0.6161673178
 10
2.0294171032
 20
0.5865989561
 10
2.0307170953
 20
0.5553678159
 10
2.0319441894
 20
0.5225624254
 10
2.0330949073
 20
0.4882757748
 10
2.0341659872
 20
0.4526050535
 10
2.0351543928
 20
0.415651374
 10
2.0360573226
 20
0.3775194856
 10
2.036872217
 20
0.3383174771
 10
2.0375967662
 20
0.298156471
 10
2.0382289163
 20
0.257150308
 10
2.0387668754
 20
0.2154152245
 10
2.0392091186
 20
0.1730695231
 10
2.0395543924
 20
0.1302332374
 10
2.039801718
 20
0.0870277914
 10
2.0399503943
 20
0.0435756557
 10
2.04
 20
0.0
  0
LWPOLYLINE
  5
9D
330
1F
100
AcDbEntity
  8
0
  6
Continuous
 62
     7
370
    15
100
AcDbPolyline
 90
       60
 70
   128
 43
0.0
 10
1.76
 20
0.0
 10
1.7600496057
 20
0.0435756557
 10
1.760198282
 20
0.0870277914
 10
1.7604456076
 20
0.1302332374
 10
1.7607908814
 20
0.1730695231
 10
1.7612331246
 20
0.2154152245
 10
1.7617710837
 20
0.257150308
 10
1.7624032338
 20
0.298156471
 10
1.763127783
 20
0.3383174771
 10
1.7639426774
 20
0.3775194856
 10
1.7648456072
 20
0.415651374
 10
1.7658340128
 20
0.4526050535
 10
1.7669050927
 20
0.4882757748
 10
1.7680558106
 20
0.5225624254
 10
1.7692829047
 20
0.5553678159
 10
1.7705828968
 20
0.5865989561
 10
1.7719521017
 20
0.6161673178
 10
1.7733866385
 20
0.6439890863
 10
1.7748824406
 20
0.6699853978
 10
1.7764352682
 20
0.6940825628
 10
1.7780407195
 20
0.7162122755
 10
1.7796942438
 20
0.7363118066
 10
1.7813911539
 20
0.7543241819
 10
1.7831266397
 20
0.7701983433
 10
1.7848957818
 20
0.7838892939
 10
1.7866935655
 20
0.7953582251
 10
1.7885148947
 20
0.804572627
 10
1.7903546065
 20
0.8115063804
 10
1.7922074863
 20
0.8161398308
 10
1.7940682817
 20
0.8184598441
 10
1.7959317183
 20
0.8184598441
 10
1.7977925137
 20
0.8161398308
 10
1.7996453935
 20
0.8115063804
 10
1.8014851053
 20
0.804572627
 10
1.8033064345
 20
0.7953582251
 10
1.8051042182
 20
0.7838892939
 10
1.8068733603
 20
0.7701983433
 10
1.8086088461
 20
0.7543241819
 10
1.8103057562
 20
0.7363118066
 10
1.8119592805
 20
0.7162122755
 10
1.8135647318
 20
0.6940825628
 10
1.8151175594
 20
0.6699853978
 10
1.8166133615
 20
0.6439890863
 10
1.8180478983
 20
0.6161673178
 10
1.8194171032
 20
0.5865989561
 10
1.8207170953
 20
0.5553678159
 10
1.8219441894
 20
0.5225624254
 10
1.8230949073
 20
0.4882757748
 10
1.8241659872
 20
0.4526050535
 10
1.8251543928
 20
0.415651374
 10
1.8260573226
 20
0.3775194856
 10
1.826872217
 20
0.3383174771
 10
1.8275967662
 20
0.298156471
 10
1.8282289163
 20
0.257150308
 10
1.8287668754
 20
0.2154152245
 10
1.8292091186
 20
0.1730695231
 10
1.8295543924
 20
0.1302332374
 10
1.829801718
 20
0.0870277914
 10
1.8299503943
 20
0.0435756557
 10
1.83
 20
0.0
  0
LWPOLYLINE
  5
9F
330
1F
100
AcDbEntity
  8
0
  6
Continuous
 62
     7
370
    15
100
AcDbPolyline
 90
       60
 70
   128
 43
0.0
 10
1.55
 20
0.0
 10
1.5500496057
 20
0.0435756557
 10
1.550198282
 20
0.0870277914
 10
1.5504456076
 20
0.1302332374
 10
1.5507908814
 20
0.1730695231
 10
1.5512331246
 20
0.2154152245
 10
1.5517710837
 20
0.257150308
 10
1.5524032338
 20
0.298156471
 10
1.553127783
 20
0.3383174771
 10
1.5539426774
 20
0.3775194856
 10
1.5548456072
 20
0.415651374
 10
1.5558340128
 20
0.4526050535
 10
1.5569050927
 20
0.4882757748
 10
1.5580558106
 20
0.5225624254
 10
1.5592829047
 20
0.5553678159
 10
1.5605828968
 20
0.5865989561
 10
1.5619521017
 20
0.6161673178
 10
1.5633866385
 20
0.6439890863
 10
1.5648824406
 20
0.6699853978
 10
1.5664352682
 20
0.6940825628
 10
1.5680407195
 20
0.7162122755
 10
1.5696942438
 20
0.7363118066
 10
1.5713911539
 20
0.7543241819
 10
1.5731266397
 20
0.7701983433
 10
1.5748957818
 20
0.7838892939
 10
1.5766935655
 20
0.7953582251
 10
1.5785148947
 20
0.804572627
 10
1.5803546065
 20
0.8115063804
 10
1.5822074863
 20
0.8161398308
 10
1.5840682817
 20
0.8184598441
 10
1.5859317183
 20
0.8184598441
 10
1.5877925137
 20
0.8161398308
 10
1.5896453935
 20
0.8115063804
 10
1.5914851053
 20
0.804572627
 10
1.5933064345
 20
0.7953582251
 10
1.5951042182
 20
0.7838892939
 10
1.5968733603
 20
0.7701983433
 10
1.5986088461
 20
0.7543241819
 10
1.6003057562
 20
0.7363118066
 10
1.6019592805
 20
0.7162122755
 10
1.6035647318
 20
0.6940825628
 10
1.6051175594
 20
0.6699853978
 10
1.6066133615
 20
0.6439890863
 10
1.6080478983
 20
0.6161673178
 10
1.6094171032
 20
0.5865989561
 10
1.6107170953
 20
0.5553678159
 10
1.6119441894
 20
0.5225624254
 10
1.6130949073
 20
0.4882757748
 10
1.6141659872
 20
0.4526050535
 10
1.6151543928
 20
0.415651374
 10
1.6160573226
 20
0.3775194856
 10
1.616872217
 20
0.3383174771
 10
1.6175967662
 20
0.298156471
 10
1.6182289163
 20
0.257150308
 10
1.6187668754
 20
0.2154152245
 10
1.6192091186
 20
0.1730695231
 10
1.6195543924
 20
0.1302332374
 10
1.619801718
 20
0.0870277914
 10
1.6199503943
 20
0.0435756557
 10
1.62
 20
0.0
  0
LWPOLYLINE
  5
A1
330
1F
100
AcDbEntity
  8
0
  6
Continuous
 62
     7
370
    15
100
AcDbPolyline
 90
       60
 70
   128
 43
0.0
 10
1.34
 20
0.0
 10
1.3400496057
 20
0.0435756557
 10
1.340198282
 20
0.0870277914
 10
1.3404456076
 20
0.1302332374
 10
1.3407908814
 20
0.1730695231
 10
1.3412331246
 20
0.2154152245
 10
1.3417710837
 20
0.257150308
 10
1.3424032338
 20
0.298156471
 10
1.343127783
 20
0.3383174771
 10
1.3439426774
 20
0.3775194856
 10
1.3448456072
 20
0.415651374
 10
1.3458340128
 20
0.4526050535
 10
1.3469050927
 20
0.4882757748
 10
1.3480558106
 20
0.5225624254
 10
1.3492829047
 20
0.5553678159
 10
1.3505828968
 20
0.5865989561
 10
1.3519521017
 20
0.6161673178
 10
1.3533866385
 20
0.6439890863
 10
1.3548824406
 20
0.6699853978
 10
1.3564352682
 20
0.6940825628
 10
1.3580407195
 20
0.7162122755
 10
1.3596942438
 20
0.7363118066
 10
1.3613911539
 20
0.7543241819
 10
1.3631266397
 20
0.7701983433
 10
1.3648957818
 20
0.7838892939
 10
1.3666935655
 20
0.7953582251
 10
1.3685148947
 20
0.804572627
 10
1.3703546065
 20
0.8115063804
 10
1.3722074863
 20
0.8161398308
 10
1.3740682817
 20
0.8184598441
 10
1.3759317183
 20
0.8184598441
 10
1.3777925137
 20
0.8161398308
 10
1.3796453935
 20
0.8115063804
 10
1.3814851053
 20
0.804572627
 10
1.3833064345
 20
0.7953582251
 10
1.3851042182
 20
0.7838892939
 10
1.3868733603
 20
0.7701983433
 10
1.3886088461
 20
0.7543241819
 10
1.3903057562
 20
0.7363118066
 10
1.3919592805
 20
0.7162122755
 10
1.3935647318
 20
0.6940825628
 10
1.3951175594
 20
0.6699853978
 10
1.3966133615
 20
0.6439890863
 10
1.3980478983
 20
0.6161673178
 10
1.3994171032
 20
0.5865989561
 10
1.4007170953
 20
0.5553678159
 10
1.4019441894
 20
0.5225624254
 10
1.4030949073
 20
0.4882757748
 10
1.4041659872
 20
0.4526050535
 10
1.4051543928
 20
0.415651374
 10
1.4060573226
 20
0.3775194856
 10
1.406872217
 20
0.3383174771
 10
1.4075967662
 20
0.298156471
 10
1.4082289163
 20
0.257150308
 10
1.4087668754
 20
0.2154152245
 10
1.4092091186
 20
0.1730695231
 10
1.4095543924
 20
0.1302332374
 10
1.409801718
 20
0.0870277914
 10
1.4099503943
 20
0.0435756557
 10
1.41
 20
0.0
  0
LWPOLYLINE
  5
A3
330
1F
100
AcDbEntity
  8
0
  6
Continuous
 62
     7
370
    15
100
AcDbPolyline
 90
       60
 70
   128
 43
0.0
 10
1.13
 20
0.0
 10
1.1300496057
 20
0.0435756557
 10
1.130198282
 20
0.0870277914
 10
1.1304456076
 20
0.1302332374
 10
1.1307908814
 20
0.1730695231
 10
1.1312331246
 20
0.2154152245
 10
1.1317710837
 20
0.257150308
 10
1.1324032338
 20
0.298156471
 10
1.133127783
 20
0.3383174771
 10
1.1339426774
 20
0.3775194856
 10
1.1348456072
 20
0.415651374
 10
1.1358340128
 20
0.4526050535
 10
1.1369050927
 20
0.4882757748
 10
1.1380558106
 20
0.5225624254
 10
1.1392829047
 20
0.5553678159
 10
1.1405828968
 20
0.5865989561
 10
1.1419521017
 20
0.6161673178
 10
1.1433866385
 20
0.6439890863
 10
1.1448824406
 20
0.6699853978
 10
1.1464352682
 20
0.6940825628
 10
1.1480407195
 20
0.7162122755
 10
1.1496942438
 20
0.7363118066
 10
1.1513911539
 20
0.7543241819
 10
1.1531266397
 20
0.7701983433
 10
1.1548957818
 20
0.7838892939
 10
1.1566935655
 20
0.7953582251
 10
1.1585148947
 20
0.804572627
 10
1.1603546065
 20
0.8115063804
 10
1.1622074863
 20
0.8161398308
 10
1.1640682817
 20
0.8184598441
 10
1.1659317183
 20
0.8184598441
 10
1.1677925137
 20
0.8161398308
 10
1.1696453935
 20
0.8115063804
 10
1.1714851053
 20
0.804572627
 10
1.1733064345
 20
0.7953582251
 10
1.1751042182
 20
0.7838892939
 10
1.1768733603
 20
0.7701983433
 10
1.1786088461
 20
0.7543241819
 10
1.1803057562
 20
0.7363118066
 10
1.1819592805
 20
0.7162122755
 10
1.1835647318
 20
0.6940825628
 10
1.1851175594
 20
0.6699853978
 10
1.1866133615
 20
0.6439890863
 10
1.1880478983
 20
0.6161673178
 10
1.1894171032
 20
0.5865989561
 10
1.1907170953
 20
0.5553678159
 10
1.1919441894
 20
0.5225624254
 10
1.1930949073
 20
0.4882757748
 10
1.1941659872
 20
0.4526050535
 10
1.1951543928
 20
0.415651374
 10
1.1960573226
 20
0.3775194856
 10
1.196872217
 20
0.3383174771
 10
1.1975967662
 20
0.298156471
 10
1.1982289163
 20
0.257150308
 10
1.1987668754
 20
0.2154152245
 10
1.1992091186
 20
0.1730695231
 10
1.1995543924
 20
0.1302332374
 10
1.199801718
 20
0.0870277914
 10
1.1999503943
 20
0.0435756557
 10
1.2
 20
0.0
  0
LWPOLYLINE
  5
A5
330
1F
100
AcDbEntity
  8
0
  6
Continuous
 62
     7
370
    15
100
AcDbPolyline
 90
       60
 70
   128
 43
0.0
 10
0.92
 20
0.0
 10
0.9200496057
 20
0.0435756557
 10
0.920198282
 20
0.0870277914
 10
0.9204456076
 20
0.1302332374
 10
0.9207908814
 20
0.1730695231
 10
0.9212331246
 20
0.2154152245
 10
0.9217710837
 20
0.257150308
 10
0.9224032338
 20
0.298156471
 10
0.923127783
 20
0.3383174771
 10
0.9239426774
 20
0.3775194856
 10
0.9248456072
 20
0.415651374
 10
0.9258340128
 20
0.4526050535
 10
0.9269050927
 20
0.4882757748
 10
0.9280558106
 20
0.5225624254
 10
0.9292829047
 20
0.5553678159
 10
0.9305828968
 20
0.5865989561
 10
0.9319521017
 20
0.6161673178
 10
0.9333866385
 20
0.6439890863
 10
0.9348824406
 20
0.6699853978
 10
0.9364352682
 20
0.6940825628
 10
0.9380407195
 20
0.7162122755
 10
0.9396942438
 20
0.7363118066
 10
0.9413911539
 20
0.7543241819
 10
0.9431266397
 20
0.7701983433
 10
0.9448957818
 20
0.7838892939
 10
0.9466935655
 20
0.7953582251
 10
0.9485148947
 20
0.804572627
 10
0.9503546065
 20
0.8115063804
 10
0.9522074863
 20
0.8161398308
 10
0.9540682817
 20
0.8184598441
 10
0.9559317183
 20
0.8184598441
 10
0.9577925137
 20
0.8161398308
 10
0.9596453935
 20
0.8115063804
 10
0.9614851053
 20
0.804572627
 10
0.9633064345
 20
0.7953582251
 10
0.9651042182
 20
0.7838892939
 10
0.9668733603
 20
0.7701983433
 10
0.9686088461
 20
0.7543241819
 10
0.9703057562
 20
0.7363118066
 10
0.9719592805
 20
0.7162122755
 10
0.9735647318
 20
0.6940825628
 10
0.9751175594
 20
0.6699853978
 10
0.9766133615
 20
0.6439890863
 10
0.9780478983
 20
0.6161673178
 10
0.9794171032
 20
0.5865989561
 10
0.9807170953
 20
0.5553678159
 10
0.9819441894
 20
0.5225624254
 10
0.9830949073
 20
0.4882757748
 10
0.9841659872
 20
0.4526050535
 10
0.9851543928
 20
0.415651374
 10
0.9860573226
 20
0.3775194856
 10
0.986872217
 20
0.3383174771
 10
0.9875967662
 20
0.298156471
 10
0.9882289163
 20
0.257150308
 10
0.9887668754
 20
0.2154152245
 10
0.9892091186
 20
0.1730695231
 10
0.9895543924
 20
0.1302332374
 10
0.989801718
 20
0.0870277914
 10
0.9899503943
 20
0.0435756557
 10
0.99
 20
0.0
  0
LWPOLYLINE
  5
A7
330
1F
100
AcDbEntity
  8
0
  6
Continuous
 62
     7
370
    15
100
AcDbPolyline
 90
       60
 70
   128
 43
0.0
 10
0.71
 20
0.0
 10
0.7100496057
 20
0.0435756557
 10
0.710198282
 20
0.0870277914
 10
0.7104456076
 20
0.1302332374
 10
0.7107908814
 20
0.1730695231
 10
0.7112331246
 20
0.2154152245
 10
0.7117710837
 20
0.257150308
 10
0.7124032338
 20
0.298156471
 10
0.713127783
 20
0.3383174771
 10
0.7139426774
 20
0.3775194856
 10
0.7148456072
 20
0.415651374
 10
0.7158340128
 20
0.4526050535
 10
0.7169050927
 20
0.4882757748
 10
0.7180558106
 20
0.5225624254
 10
0.7192829047
 20
0.5553678159
 10
0.7205828968
 20
0.5865989561
 10
0.7219521017
 20
0.6161673178
 10
0.7233866385
 20
0.6439890863
 10
0.7248824406
 20
0.6699853978
 10
0.7264352682
 20
0.6940825628
 10
0.7280407195
 20
0.7162122755
 10
0.7296942438
 20
0.7363118066
 10
0.7313911539
 20
0.7543241819
 10
0.7331266397
 20
0.7701983433
 10
0.7348957818
 20
0.7838892939
 10
0.7366935655
 20
0.7953582251
 10
0.7385148947
 20
0.804572627
 10
0.7403546065
 20
0.8115063804
 10
0.7422074863
 20
0.8161398308
 10
0.7440682817
 20
0.8184598441
 10
0.7459317183
 20
0.8184598441
 10
0.7477925137
 20
0.8161398308
 10
0.7496453935
 20
0.8115063804
 10
0.7514851053
 20
0.804572627
 10
0.7533064345
 20
0.7953582251
 10
0.7551042182
 20
0.7838892939
 10
0.7568733603
 20
0.7701983433
 10
0.7586088461
 20
0.7543241819
 10
0.7603057562
 20
0.7363118066
 10
0.7619592805
 20
0.7162122755
 10
0.7635647318
 20
0.6940825628
 10
0.7651175594
 20
0.6699853978
 10
0.7666133615
 20
0.6439890863
 10
0.7680478983
 20
0.6161673178
 10
0.7694171032
 20
0.5865989561
 10
0.7707170953
 20
0.5553678159
 10
0.7719441894
 20
0.5225624254
 10
0.7730949073
 20
0.4882757748
 10
0.7741659872
 20
0.4526050535
 10
0.7751543928
 20
0.415651374
 10
0.7760573226
 20
0.3775194856
 10
0.776872217
 20
0.3383174771
 10
0.7775967662
 20
0.298156471
 10
0.7782289163
 20
0.257150308
 10
0.7787668754
 20
0.2154152245
 10
0.7792091186
 20
0.1730695231
 10
0.7795543924
 20
0.1302332374
 10
0.779801718
 20
0.0870277914
 10
0.7799503943
 20
0.0435756557
 10
0.78
 20
0.0
  0
LWPOLYLINE
  5
A9
330
1F
100
AcDbEntity
  8
0
  6
Continuous
 62
     7
370
    15
100
AcDbPolyline
 90
       60
 70
   128
 43
0.0
 10
0.5
 20
0.0
 10
0.5000496057
 20
0.0435756557
 10
0.500198282
 20
0.0870277914
 10
0.5004456076
 20
0.1302332374
 10
0.5007908814
 20
0.1730695231
 10
0.5012331246
 20
0.2154152245
 10
0.5017710837
 20
0.257150308
 10
0.5024032338
 20
0.298156471
 10
0.503127783
 20
0.3383174771
 10
0.5039426774
 20
0.3775194856
 10
0.5048456072
 20
0.415651374
 10
0.5058340128
 20
0.4526050535
 10
0.5069050927
 20
0.4882757748
 10
0.5080558106
 20
0.5225624254
 10
0.5092829047
 20
0.5553678159
 10
0.5105828968
 20
0.5865989561
 10
0.5119521017
 20
0.6161673178
 10
0.5133866385
 20
0.6439890863
 10
0.5148824406
 20
0.6699853978
 10
0.5164352682
 20
0.6940825628
 10
0.5180407195
 20
0.7162122755
 10
0.5196942438
 20
0.7363118066
 10
0.5213911539
 20
0.7543241819
 10
0.5231266397
 20
0.7701983433
 10
0.5248957818
 20
0.7838892939
 10
0.5266935655
 20
0.7953582251
 10
0.5285148947
 20
0.804572627
 10
0.5303546065
 20
0.8115063804
 10
0.5322074863
 20
0.8161398308
 10
0.5340682817
 20
0.8184598441
 10
0.5359317183
 20
0.8184598441
 10
0.5377925137
 20
0.8161398308
 10
0.5396453935
 20
0.8115063804
 10
0.5414851053
 20
0.804572627
 10
0.5433064345
 20
0.7953582251
 10
0.5451042182
 20
0.7838892939
 10
0.5468733603
 20
0.7701983433
 10
0.5486088461
 20
0.7543241819
 10
0.5503057562
 20
0.7363118066
 10
0.5519592805
 20
0.7162122755
 10
0.5535647318
 20
0.6940825628
 10
0.5551175594
 20
0.6699853978
 10
0.5566133615
 20
0.6439890863
 10
0.5580478983
 20
0.6161673178
 10
0.5594171032
 20
0.5865989561
 10
0.5607170953
 20
0.5553678159
 10
0.5619441894
 20
0.5225624254
 10
0.5630949073
 20
0.4882757748
 10
0.5641659872
 20
0.4526050535
 10
0.5651543928
 20
0.415651374
 10
0.5660573226
 20
0.3775194856
 10
0.566872217
 20
0.3383174771
 10
0.5675967662
 20
0.298156471
 10
0.5682289163
 20
0.257150308
 10
0.5687668754
 20
0.2154152245
 10
0.5692091186
 20
0.1730695231
 10
0.5695543924
 20
0.1302332374
 10
0.569801718
 20
0.0870277914
 10
0.5699503943
 20
0.0435756557
 10
0.57
 20
0.0
  0
LWPOLYLINE
  5
AC
330
1F
100
AcDbEntity
  8
0
  6
Continuous
 62
     7
370
    15
100
AcDbPolyline
 90
      119
 70
   128
 43
0.0
 10
0.85
 20
0.18125
 10
0.8519958316
 20
0.1824104179
 10
0.8539860057
 20
0.1858883823
 10
0.8559648811
 20
0.1916740346
 10
0.8579268484
 20
0.1997509746
 10
0.8598663462
 20
0.2100963074
 10
0.8617778767
 20
0.2226807081
 10
0.8636560216
 20
0.2374685047
 10
0.865495457
 20
0.2544177797
 10
0.8672909688
 20
0.2734804885
 10
0.8690374675
 20
0.2946025959
 10
0.8707300025
 20
0.3177242288
 10
0.8723637759
 20
0.3427798464
 10
0.8739341569
 20
0.3696984261
 10
0.8754366939
 20
0.398403664
 10
0.8768671278
 20
0.4288141921
 10
0.8782214039
 20
0.4608438084
 10
0.8794956833
 20
0.4944017215
 10
0.8806863541
 20
0.5293928079
 10
0.881790041
 20
0.5657178815
 10
0.8828036157
 20
0.6032739749
 10
0.8837242049
 20
0.6419546314
 10
0.8845491992
 20
0.6816502063
 10
0.88527626
 20
0.7222481784
 10
0.8859033264
 20
0.7636334681
 10
0.886428621
 20
0.8056887645
 10
0.8868506547
 20
0.8482948572
 10
0.8871682312
 20
0.8913309745
 10
0.8873804503
 20
0.9346751261
 10
0.8874867104
 20
0.9782044481
 10
0.8874867104
 20
1.0217955519
 10
0.8873804503
 20
1.0653248739
 10
0.8871682312
 20
1.1086690255
 10
0.8868506547
 20
1.1517051428
 10
0.886428621
 20
1.1943112355
 10
0.8859033264
 20
1.2363665319
 10
0.88527626
 20
1.2777518216
 10
0.8845491992
 20
1.3183497937
 10
0.8837242049
 20
1.3580453686
 10
0.8828036157
 20
1.3967260251
 10
0.881790041
 20
1.4342821185
 10
0.8806863541
 20
1.4706071921
 10
0.8794956833
 20
1.5055982785
 10
0.8782214039
 20
1.5391561916
 10
0.8768671278
 20
1.5711858079
 10
0.8754366939
 20
1.601596336
 10
0.8739341569
 20
1.6303015739
 10
0.8723637759
 20
1.6572201536
 10
0.8707300025
 20
1.6822757712
 10
0.8690374675
 20
1.7053974041
 10
0.8672909688
 20
1.7265195115
 10
0.865495457
 20
1.7455822203
 10
0.8636560216
 20
1.7625314953
 10
0.8617778767
 20
1.7773192919
 10
0.8598663462
 20
1.7899036926
 10
0.8579268484
 20
1.8002490254
 10
0.8559648811
 20
1.8083259654
 10
0.8539860057
 20
1.8141116177
 10
0.8519958316
 20
1.8175895821
 10
0.85
 20
1.81875
 10
0.8480041684
 20
1.8175895821
 10
0.8460139943
 20
1.8141116177
 10
0.8440351189
 20
1.8083259654
 10
0.8420731516
 20
1.8002490254
 10
0.8401336538
 20
1.7899036926
 10
0.8382221233
 20
1.7773192919
 10
0.8363439784
 20
1.7625314953
 10
0.834504543
 20
1.7455822203
 10
0.8327090312
 20
1.7265195115
 10
0.8309625325
 20
1.7053974041
 10
0.8292699975
 20
1.6822757712
 10
0.8276362241
 20
1.6572201536
 10
0.8260658431
 20
1.6303015739
 10
0.8245633061
 20
1.601596336
 10
0.8231328722
 20
1.5711858079
 10
0.8217785961
 20
1.5391561916
 10
0.8205043167
 20
1.5055982785
 10
0.8193136459
 20
1.4706071921
 10
0.818209959
 20
1.4342821185
 10
0.8171963843
 20
1.3967260251
 10
0.8162757951
 20
1.3580453686
 10
0.8154508008
 20
1.3183497937
 10
0.81472374
 20
1.2777518216
 10
0.8140966736
 20
1.2363665319
 10
0.813571379
 20
1.1943112355
 10
0.8131493453
 20
1.1517051428
 10
0.8128317688
 20
1.1086690255
 10
0.8126195497
 20
1.0653248739
 10
0.8125132896
 20
1.0217955519
 10
0.8125132896
 20
0.9782044481
 10
0.8126195497
 20
0.9346751261
 10
0.8128317688
 20
0.8913309745
 10
0.8131493453
 20
0.8482948572
 10
0.813571379
 20
0.8056887645
 10
0.8140966736
 20
0.7636334681
 10
0.81472374
 20
0.7222481784
 10
0.8154508008
 20
0.6816502063
 10
0.8162757951
 20
0.6419546314
 10
0.8171963843
 20
0.6032739749
 10
0.818209959
 20
0.5657178815
 10
0.8193136459
 20
0.5293928079
 10
0.8205043167
 20
0.4944017215
 10
0.8217785961
 20
0.4608438084
 10
0.8231328722
 20
0.4288141921
 10
0.8245633061
 20
0.398403664
 10
0.8260658431
 20
0.3696984261
 10
0.8276362241
 20
0.3427798464
 10
0.8292699975
 20
0.3177242288
 10
0.8309625325
 20
0.2946025959
 10
0.8327090312
 20
0.2734804885
 10
0.834504543
 20
0.2544177797
 10
0.8363439784
 20
0.2374685047
 10
0.8382221233
 20
0.2226807081
 10
0.8401336538
 20
0.2100963074
 10
0.8420731516
 20
0.1997509746
 10
0.8440351189
 20
0.1916740346
 10
0.8460139943
 20
0.1858883823
 10
0.8480041684
 20
0.1824104179
 10
0.85
 20
0.18125
  0
LWPOLYLINE
  5
AD
330
1F
100
AcDbEntity
  8
0
  6
Continuous
 62
     7
370
    15
100
AcDbPolyline
 90
      119
 70
   128
 43
0.0
 10
1.27
 20
0.18125
 10
1.2719958316
 20
0.1824104179
 10
1.2739860057
 20
0.1858883823
 10
1.2759648811
 20
0.1916740346
 10
1.2779268484
 20
0.1997509746
 10
1.2798663462
 20
0.2100963074
 10
1.2817778767
 20
0.2226807081
 10
1.2836560216
 20
0.2374685047
 10
1.285495457
 20
0.2544177797
 10
1.2872909688
 20
0.2734804885
 10
1.2890374675
 20
0.2946025959
 10
1.2907300025
 20
0.3177242288
 10
1.2923637759
 20
0.3427798464
 10
1.2939341569
 20
0.3696984261
 10
1.2954366939
 20
0.398403664
 10
1.2968671278
 20
0.4288141921
 10
1.2982214039
 20
0.4608438084
 10
1.2994956833
 20
0.4944017215
 10
1.3006863541
 20
0.5293928079
 10
1.301790041
 20
0.5657178815
 10
1.3028036157
 20
0.6032739749
 10
1.3037242049
 20
0.6419546314
 10
1.3045491992
 20
0.6816502063
 10
1.30527626
 20
0.7222481784
 10
1.3059033264
 20
0.7636334681
 10
1.306428621
 20
0.8056887645
 10
1.3068506547
 20
0.8482948572
 10
1.3071682312
 20
0.8913309745
 10
1.3073804503
 20
0.9346751261
 10
1.3074867104
 20
0.9782044481
 10
1.3074867104
 20
1.0217955519
 10
1.3073804503
 20
1.0653248739
 10
1.3071682312
 20
1.1086690255
 10
1.3068506547
 20
1.1517051428
 10
1.306428621
 20
1.1943112355
 10
1.3059033264
 20
1.2363665319
 10
1.30527626
 20
1.2777518216
 10
1.3045491992
 20
1.3183497937
 10
1.3037242049
 20
1.3580453686
 10
1.3028036157
 20
1.3967260251
 10
1.301790041
 20
1.4342821185
 10
1.3006863541
 20
1.4706071921
 10
1.2994956833
 20
1.5055982785
 10
1.2982214039
 20
1.5391561916
 10
1.2968671278
 20
1.5711858079
 10
1.2954366939
 20
1.601596336
 10
1.2939341569
 20
1.6303015739
 10
1.2923637759
 20
1.6572201536
 10
1.2907300025
 20
1.6822757712
 10
1.2890374675
 20
1.7053974041
 10
1.2872909688
 20
1.7265195115
 10
1.285495457
 20
1.7455822203
 10
1.2836560216
 20
1.7625314953
 10
1.2817778767
 20
1.7773192919
 10
1.2798663462
 20
1.7899036926
 10
1.2779268484
 20
1.8002490254
 10
1.2759648811
 20
1.8083259654
 10
1.2739860057
 20
1.8141116177
 10
1.2719958316
 20
1.8175895821
 10
1.27
 20
1.81875
 10
1.2680041684
 20
1.8175895821
 10
1.2660139943
 20
1.8141116177
 10
1.2640351189
 20
1.8083259654
 10
1.2620731516
 20
1.8002490254
 10
1.2601336538
 20
1.7899036926
 10
1.2582221233
 20
1.7773192919
 10
1.2563439784
 20
1.7625314953
 10
1.254504543
 20
1.7455822203
 10
1.2527090312
 20
1.7265195115
 10
1.2509625325
 20
1.7053974041
 10
1.2492699975
 20
1.6822757712
 10
1.2476362241
 20
1.6572201536
 10
1.2460658431
 20
1.6303015739
 10
1.2445633061
 20
1.601596336
 10
1.2431328722
 20
1.5711858079
 10
1.2417785961
 20
1.5391561916
 10
1.2405043167
 20
1.5055982785
 10
1.2393136459
 20
1.4706071921
 10
1.238209959
 20
1.4342821185
 10
1.2371963843
 20
1.3967260251
 10
1.2362757951
 20
1.3580453686
 10
1.2354508008
 20
1.3183497937
 10
1.23472374
 20
1.2777518216
 10
1.2340966736
 20
1.2363665319
 10
1.233571379
 20
1.1943112355
 10
1.2331493453
 20
1.1517051428
 10
1.2328317688
 20
1.1086690255
 10
1.2326195497
 20
1.0653248739
 10
1.2325132896
 20
1.0217955519
 10
1.2325132896
 20
0.9782044481
 10
1.2326195497
 20
0.9346751261
 10
1.2328317688
 20
0.8913309745
 10
1.2331493453
 20
0.8482948572
 10
1.233571379
 20
0.8056887645
 10
1.2340966736
 20
0.7636334681
 10
1.23472374
 20
0.7222481784
 10
1.2354508008
 20
0.6816502063
 10
1.2362757951
 20
0.6419546314
 10
1.2371963843
 20
0.6032739749
 10
1.238209959
 20
0.5657178815
 10
1.2393136459
 20
0.5293928079
 10
1.2405043167
 20
0.4944017215
 10
1.2417785961
 20
0.4608438084
 10
1.2431328722
 20
0.4288141921
 10
1.2445633061
 20
0.398403664
 10
1.2460658431
 20
0.3696984261
 10
1.2476362241
 20
0.3427798464
 10
1.2492699975
 20
0.3177242288
 10
1.2509625325
 20
0.2946025959
 10
1.2527090312
 20
0.2734804885
 10
1.254504543
 20
0.2544177797
 10
1.2563439784
 20
0.2374685047
 10
1.2582221233
 20
0.2226807081
 10
1.2601336538
 20
0.2100963074
 10
1.2620731516
 20
0.1997509746
 10
1.2640351189
 20
0.1916740346
 10
1.2660139943
 20
0.1858883823
 10
1.2680041684
 20
0.1824104179
 10
1.27
 20
0.18125
  0
LWPOLYLINE
  5
AE
330
1F
100
AcDbEntity
  8
0
  6
Continuous
 62
     7
370
    15
100
AcDbPolyline
 90
      119
 70
   128
 43
0.0
 10
1.69
 20
0.18125
 10
1.6919958316
 20
0.1824104179
 10
1.6939860057
 20
0.1858883823
 10
1.6959648811
 20
0.1916740346
 10
1.6979268484
 20
0.1997509746
 10
1.6998663462
 20
0.2100963074
 10
1.7017778767
 20
0.2226807081
 10
1.7036560216
 20
0.2374685047
 10
1.705495457
 20
0.2544177797
 10
1.7072909688
 20
0.2734804885
 10
1.7090374675
 20
0.2946025959
 10
1.7107300025
 20
0.3177242288
 10
1.7123637759
 20
0.3427798464
 10
1.7139341569
 20
0.3696984261
 10
1.7154366939
 20
0.398403664
 10
1.7168671278
 20
0.4288141921
 10
1.7182214039
 20
0.4608438084
 10
1.7194956833
 20
0.4944017215
 10
1.7206863541
 20
0.5293928079
 10
1.721790041
 20
0.5657178815
 10
1.7228036157
 20
0.6032739749
 10
1.7237242049
 20
0.6419546314
 10
1.7245491992
 20
0.6816502063
 10
1.72527626
 20
0.7222481784
 10
1.7259033264
 20
0.7636334681
 10
1.726428621
 20
0.8056887645
 10
1.7268506547
 20
0.8482948572
 10
1.7271682312
 20
0.8913309745
 10
1.7273804503
 20
0.9346751261
 10
1.7274867104
 20
0.9782044481
 10
1.7274867104
 20
1.0217955519
 10
1.7273804503
 20
1.0653248739
 10
1.7271682312
 20
1.1086690255
 10
1.7268506547
 20
1.1517051428
 10
1.726428621
 20
1.1943112355
 10
1.7259033264
 20
1.2363665319
 10
1.72527626
 20
1.2777518216
 10
1.7245491992
 20
1.3183497937
 10
1.7237242049
 20
1.3580453686
 10
1.7228036157
 20
1.3967260251
 10
1.721790041
 20
1.4342821185
 10
1.7206863541
 20
1.4706071921
 10
1.7194956833
 20
1.5055982785
 10
1.7182214039
 20
1.5391561916
 10
1.7168671278
 20
1.5711858079
 10
1.7154366939
 20
1.601596336
 10
1.7139341569
 20
1.6303015739
 10
1.7123637759
 20
1.6572201536
 10
1.7107300025
 20
1.6822757712
 10
1.7090374675
 20
1.7053974041
 10
1.7072909688
 20
1.7265195115
 10
1.705495457
 20
1.7455822203
 10
1.7036560216
 20
1.7625314953
 10
1.7017778767
 20
1.7773192919
 10
1.6998663462
 20
1.7899036926
 10
1.6979268484
 20
1.8002490254
 10
1.6959648811
 20
1.8083259654
 10
1.6939860057
 20
1.8141116177
 10
1.6919958316
 20
1.8175895821
 10
1.69
 20
1.81875
 10
1.6880041684
 20
1.8175895821
 10
1.6860139943
 20
1.8141116177
 10
1.6840351189
 20
1.8083259654
 10
1.6820731516
 20
1.8002490254
 10
1.6801336538
 20
1.7899036926
 10
1.6782221233
 20
1.7773192919
 10
1.6763439784
 20
1.7625314953
 10
1.674504543
 20
1.7455822203
 10
1.6727090312
 20
1.7265195115
 10
1.6709625325
 20
1.7053974041
 10
1.6692699975
 20
1.6822757712
 10
1.6676362241
 20
1.6572201536
 10
1.6660658431
 20
1.6303015739
 10
1.6645633061
 20
1.601596336
 10
1.6631328722
 20
1.5711858079
 10
1.6617785961
 20
1.5391561916
 10
1.6605043167
 20
1.5055982785
 10
1.6593136459
 20
1.4706071921
 10
1.658209959
 20
1.4342821185
 10
1.6571963843
 20
1.3967260251
 10
1.6562757951
 20
1.3580453686
 10
1.6554508008
 20
1.3183497937
 10
1.65472374
 20
1.2777518216
 10
1.6540966736
 20
1.2363665319
 10
1.653571379
 20
1.1943112355
 10
1.6531493453
 20
1.1517051428
 10
1.6528317688
 20
1.1086690255
 10
1.6526195497
 20
1.0653248739
 10
1.6525132896
 20
1.0217955519
 10
1.6525132896
 20
0.9782044481
 10
1.6526195497
 20
0.9346751261
 10
1.6528317688
 20
0.8913309745
 10
1.6531493453
 20
0.8482948572
 10
1.653571379
 20
0.8056887645
 10
1.6540966736
 20
0.7636334681
 10
1.65472374
 20
0.7222481784
 10
1.6554508008
 20
0.6816502063
 10
1.6562757951
 20
0.6419546314
 10
1.6571963843
 20
0.6032739749
 10
1.658209959
 20
0.5657178815
 10
1.6593136459
 20
0.5293928079
 10
1.6605043167
 20
0.4944017215
 10
1.6617785961
 20
0.4608438084
 10
1.6631328722
 20
0.4288141921
 10
1.6645633061
 20
0.398403664
 10
1.6660658431
 20
0.3696984261
 10
1.6676362241
 20
0.3427798464
 10
1.6692699975
 20
0.3177242288
 10
1.6709625325
 20
0.2946025959
 10
1.6727090312
 20
0.2734804885
 10
1.674504543
 20
0.2544177797
 10
1.6763439784
 20
0.2374685047
 10
1.6782221233
 20
0.2226807081
 10
1.6801336538
 20
0.2100963074
 10
1.6820731516
 20
0.1997509746
 10
1.6840351189
 20
0.1916740346
 10
1.6860139943
 20
0.1858883823
 10
1.6880041684
 20
0.1824104179
 10
1.69
 20
0.18125
  0
LWPOLYLINE
  5
AF
330
1F
100
AcDbEntity
  8
0
  6
Continuous
 62
     7
370
    15
100
AcDbPolyline
 90
      119
 70
   128
 43
0.0
 10
2.11
 20
0.18125
 10
2.1119958316
 20
0.1824104179
 10
2.1139860057
 20
0.1858883823
 10
2.1159648811
 20
0.1916740346
 10
2.1179268484
 20
0.1997509746
 10
2.1198663462
 20
0.2100963074
 10
2.1217778767
 20
0.2226807081
 10
2.1236560216
 20
0.2374685047
 10
2.125495457
 20
0.2544177797
 10
2.1272909688
 20
0.2734804885
 10
2.1290374675
 20
0.2946025959
 10
2.1307300025
 20
0.3177242288
 10
2.1323637759
 20
0.3427798464
 10
2.1339341569
 20
0.3696984261
 10
2.1354366939
 20
0.398403664
 10
2.1368671278
 20
0.4288141921
 10
2.1382214039
 20
0.4608438084
 10
2.1394956833
 20
0.4944017215
 10
2.1406863541
 20
0.5293928079
 10
2.141790041
 20
0.5657178815
 10
2.1428036157
 20
0.6032739749
 10
2.1437242049
 20
0.6419546314
 10
2.1445491992
 20
0.6816502063
 10
2.14527626
 20
0.7222481784
 10
2.1459033264
 20
0.7636334681
 10
2.146428621
 20
0.8056887645
 10
2.1468506547
 20
0.8482948572
 10
2.1471682312
 20
0.8913309745
 10
2.1473804503
 20
0.9346751261
 10
2.1474867104
 20
0.9782044481
 10
2.1474867104
 20
1.0217955519
 10
2.1473804503
 20
1.0653248739
 10
2.1471682312
 20
1.1086690255
 10
2.1468506547
 20
1.1517051428
 10
2.146428621
 20
1.1943112355
 10
2.1459033264
 20
1.2363665319
 10
2.14527626
 20
1.2777518216
 10
2.1445491992
 20
1.3183497937
 10
2.1437242049
 20
1.3580453686
 10
2.1428036157
 20
1.3967260251
 10
2.141790041
 20
1.4342821185
 10
2.1406863541
 20
1.4706071921
 10
2.1394956833
 20
1.5055982785
 10
2.1382214039
 20
1.5391561916
 10
2.1368671278
 20
1.5711858079
 10
2.1354366939
 20
1.601596336
 10
2.1339341569
 20
1.6303015739
 10
2.1323637759
 20
1.6572201536
 10
2.1307300025
 20
1.6822757712
 10
2.1290374675
 20
1.7053974041
 10
2.1272909688
 20
1.7265195115
 10
2.125495457
 20
1.7455822203
 10
2.1236560216
 20
1.7625314953
 10
2.1217778767
 20
1.7773192919
 10
2.1198663462
 20
1.7899036926
 10
2.1179268484
 20
1.8002490254
 10
2.1159648811
 20
1.8083259654
 10
2.1139860057
 20
1.8141116177
 10
2.1119958316
 20
1.8175895821
 10
2.11
 20
1.81875
 10
2.1080041684
 20
1.8175895821
 10
2.1060139943
 20
1.8141116177
 10
2.1040351189
 20
1.8083259654
 10
2.1020731516
 20
1.8002490254
 10
2.1001336538
 20
1.7899036926
 10
2.0982221233
 20
1.7773192919
 10
2.0963439784
 20
1.7625314953
 10
2.094504543
 20
1.7455822203
 10
2.0927090312
 20
1.7265195115
 10
2.0909625325
 20
1.7053974041
 10
2.0892699975
 20
1.6822757712
 10
2.0876362241
 20
1.6572201536
 10
2.0860658431
 20
1.6303015739
 10
2.0845633061
 20
1.601596336
 10
2.0831328722
 20
1.5711858079
 10
2.0817785961
 20
1.5391561916
 10
2.0805043167
 20
1.5055982785
 10
2.0793136459
 20
1.4706071921
 10
2.078209959
 20
1.4342821185
 10
2.0771963843
 20
1.3967260251
 10
2.0762757951
 20
1.3580453686
 10
2.0754508008
 20
1.3183497937
 10
2.07472374
 20
1.2777518216
 10
2.0740966736
 20
1.2363665319
 10
2.073571379
 20
1.1943112355
 10
2.0731493453
 20
1.1517051428
 10
2.0728317688
 20
1.1086690255
 10
2.0726195497
 20
1.0653248739
 10
2.0725132896
 20
1.0217955519
 10
2.0725132896
 20
0.9782044481
 10
2.0726195497
 20
0.9346751261
 10
2.0728317688
 20
0.8913309745
 10
2.0731493453
 20
0.8482948572
 10
2.073571379
 20
0.8056887645
 10
2.0740966736
 20
0.7636334681
 10
2.07472374
 20
0.7222481784
 10
2.0754508008
 20
0.6816502063
 10
2.0762757951
 20
0.6419546314
 10
2.0771963843
 20
0.6032739749
 10
2.078209959
 20
0.5657178815
 10
2.0793136459
 20
0.5293928079
 10
2.0805043167
 20
0.4944017215
 10
2.0817785961
 20
0.4608438084
 10
2.0831328722
 20
0.4288141921
 10
2.0845633061
 20
0.398403664
 10
2.0860658431
 20
0.3696984261
 10
2.0876362241
 20
0.3427798464
 10
2.0892699975
 20
0.3177242288
 10
2.0909625325
 20
0.2946025959
 10
2.0927090312
 20
0.2734804885
 10
2.094504543
 20
0.2544177797
 10
2.0963439784
 20
0.2374685047
 10
2.0982221233
 20
0.2226807081
 10
2.1001336538
 20
0.2100963074
 10
2.1020731516
 20
0.1997509746
 10
2.1040351189
 20
0.1916740346
 10
2.1060139943
 20
0.1858883823
 10
2.1080041684
 20
0.1824104179
 10
2.11
 20
0.18125
  0
LINE
  5
B0
330
1F
100
AcDbEntity
  8
0
  6
Continuous
 62
     7
370
    15
100
AcDbLine
 10
0.125
 20
0.75
 30
0.0
 11
0.0
 21
0.75
 31
0.0
  0
LINE
  5
B1
330
1F
100
AcDbEntity
  8
0
  6
Continuous
 62
     7
370
    15
100
AcDbLine
 10
0.125
 20
0.90625
 30
0.0
 11
0.125
 21
0.75
 31
0.0
  0
LINE
  5
B2
330
1F
100
AcDbEntity
  8
0
  6
Continuous
 62
     7
370
    15
100
AcDbLine
 10
0.195
 20
0.90625
 30
0.0
 11
0.125
 21
0.90625
 31
0.0
  0
LINE
  5
B3
330
1F
100
AcDbEntity
  8
0
  6
Continuous
 62
     7
370
    15
100
AcDbLine
 10
0.195
 20
0.84375
 30
0.0
 11
0.195
 21
0.90625
 31
0.0
  0
LINE
  5
B4
330
1F
100
AcDbEntity
  8
0
  6
Continuous
 62
     7
370
    15
100
AcDbLine
 10
0.304375
 20
0.84375
 30
0.0
 11
0.195
 21
0.84375
 31
0.0
  0
LINE
  5
B5
330
1F
100
AcDbEntity
  8
0
  6
Continuous
 62
     7
370
    15
100
AcDbLine
 10
0.304375
 20
0.90625
 30
0.0
 11
0.304375
 21
0.84375
 31
0.0
  0
LINE
  5
B6
330
1F
100
AcDbEntity
  8
0
  6
Continuous
 62
     7
370
    15
100
AcDbLine
 10
0.375
 20
0.90625
 30
0.0
 11
0.304375
 21
0.90625
 31
0.0
  0
LINE
  5
B7
330
1F
100
AcDbEntity
  8
0
  6
Continuous
 62
     7
370
    15
100
AcDbLine
 10
0.375
 20
1.09375
 30
0.0
 11
0.375
 21
0.90625
 31
0.0
  0
LINE
  5
B8
330
1F
100
AcDbEntity
  8
0
  6
Continuous
 62
     7
370
    15
100
AcDbLine
 10
0.304375
 20
1.09375
 30
0.0
 11
0.375
 21
1.09375
 31
0.0
  0
LINE
  5
B9
330
1F
100
AcDbEntity
  8
0
  6
Continuous
 62
     7
370
    15
100
AcDbLine
 10
0.304375
 20
1.15625
 30
0.0
 11
0.304375
 21
1.09375
 31
0.0
  0
LINE
  5
BA
330
1F
100
AcDbEntity
  8
0
  6
Continuous
 62
     7
370
    15
100
AcDbLine
 10
0.195
 20
1.15625
 30
0.0
 11
0.304375
 21
1.15625
 31
0.0
  0
LINE
  5
BB
330
1F
100
AcDbEntity
  8
0
  6
Continuous
 62
     7
370
    15
100
AcDbLine
 10
0.195
 20
1.09375
 30
0.0
 11
0.195
 21
1.15625
 31
0.0
  0
LINE
  5
BC
330
1F
100
AcDbEntity
  8
0
  6
Continuous
 62
     7
370
    15
100
AcDbLine
 10
0.125
 20
1.09375
 30
0.0
 11
0.195
 21
1.09375
 31
0.0
  0
LINE
  5
BD
330
1F
100
AcDbEntity
  8
0
  6
Continuous
 62
     7
370
    15
100
AcDbLine
 10
0.125
 20
1.25
 30
0.0
 11
0.125
 21
1.09375
 31
0.0
  0
LINE
  5
BE
330
1F
100
AcDbEntity
  8
0
  6
Continuous
 62
     7
370
    15
100
AcDbLine
 10
0.0
 20
1.25
 30
0.0
 11
0.125
 21
1.25
 31
0.0
  0
LINE
  5
BF
330
1F
100
AcDbEntity
  8
0
  6
Continuous
 62
     7
370
    15
100
AcDbLine
 10
0.0
 20
2.0
 30
0.0
 11
0.0
 21
1.25
 31
0.0
  0
LINE
  5
C0
330
1F
100
AcDbEntity
  8
0
  6
Continuous
 62
     7
370
    15
100
AcDbLine
 10
0.5
 20
2.0
 30
0.0
 11
0.0
 21
2.0
 31
0.0
  0
LINE
  5
C1
330
1F
100
AcDbEntity
  8
0
  6
Continuous
 62
     7
370
    15
100
AcDbLine
 10
0.71
 20
2.0
 30
0.0
 11
0.57
 21
2.0
 31
0.0
  0
LINE
  5
C2
330
1F
100
AcDbEntity
  8
0
  6
Continuous
 62
     7
370
    15
100
AcDbLine
 10
0.92
 20
2.0
 30
0.0
 11
0.78
 21
2.0
 31
0.0
  0
LINE
  5
C3
330
1F
100
AcDbEntity
  8
0
  6
Continuous
 62
     7
370
    15
100
AcDbLine
 10
1.13
 20
2.0
 30
0.0
 11
0.99
 21
2.0
 31
0.0
  0
LINE
  5
C4
330
1F
100
AcDbEntity
  8
0
  6
Continuous
 62
     7
370
    15
100
AcDbLine
 10
1.34
 20
2.0
 30
0.0
 11
1.2
 21
2.0
 31
0.0
  0
LINE
  5
C5
330
1F
100
AcDbEntity
  8
0
  6
Continuous
 62
     7
370
    15
100
AcDbLine
 10
1.55
 20
2.0
 30
0.0
 11
1.41
 21
2.0
 31
0.0
  0
LINE
  5
C6
330
1F
100
AcDbEntity
  8
0
  6
Continuous
 62
     7
370
    15
100
AcDbLine
 10
1.76
 20
2.0
 30
0.0
 11
1.62
 21
2.0
 31
0.0
  0
LINE
  5
C7
330
1F
100
AcDbEntity
  8
0
  6
Continuous
 62
     7
370
    15
100
AcDbLine
 10
1.97
 20
2.0
 30
0.0
 11
1.83
 21
2.0
 31
0.0
  0
LINE
  5
C8
330
1F
100
AcDbEntity
  8
0
  6
Continuous
 62
     7
370
    15
100
AcDbLine
 10
2.18
 20
2.0
 30
0.0
 11
2.04
 21
2.0
 31
0.0
  0
LINE
  5
C9
330
1F
100
AcDbEntity
  8
0
  6
Continuous
 62
     7
370
    15
100
AcDbLine
 10
2.74
 20
2.0
 30
0.0
 11
2.25
 21
2.0
 31
0.0
  0
LINE
  5
CA
330
1F
100
AcDbEntity
  8
0
  6
Continuous
 62
     7
370
    15
100
AcDbLine
 10
2.74
 20
0.0
 30
0.0
 11
2.74
 21
2.0
 31
0.0
  0
LINE
  5
CB
330
1F
100
AcDbEntity
  8
0
  6
Continuous
 62
     7
370
    15
100
AcDbLine
 10
2.25
 20
0.0
 30
0.0
 11
2.74
 21
0.0
 31
0.0
  0
LINE
  5
CC
330
1F
100
AcDbEntity
  8
0
  6
Continuous
 62
     7
370
    15
100
AcDbLine
 10
2.04
 20
0.0
 30
0.0
 11
2.18
 21
0.0
 31
0.0
  0
LINE
  5
CD
330
1F
100
AcDbEntity
  8
0
  6
Continuous
 62
     7
370
    15
100
AcDbLine
 10
1.83
 20
0.0
 30
0.0
 11
1.97
 21
0.0
 31
0.0
  0
LINE
  5
CE
330
1F
100
AcDbEntity
  8
0
  6
Continuous
 62
     7
370
    15
100
AcDbLine
 10
1.62
 20
0.0
 30
0.0
 11
1.76
 21
0.0
 31
0.0
  0
LINE
  5
CF
330
1F
100
AcDbEntity
  8
0
  6
Continuous
 62
     7
370
    15
100
AcDbLine
 10
1.41
 20
0.0
 30
0.0
 11
1.55
 21
0.0
 31
0.0
  0
LINE
  5
D0
330
1F
100
AcDbEntity
  8
0
  6
Continuous
 62
     7
370
    15
100
AcDbLine
 10
1.2
 20
0.0
 30
0.0
 11
1.34
 21
0.0
 31
0.0
  0
LINE
  5
D1
330
1F
100
AcDbEntity
  8
0
  6
Continuous
 62
     7
370
    15
100
AcDbLine
 10
0.99
 20
0.0
 30
0.0
 11
1.13
 21
0.0
 31
0.0
  0
LINE
  5
D2
330
1F
100
AcDbEntity
  8
0
  6
Continuous
 62
     7
370
    15
100
AcDbLine
 10
0.78
 20
0.0
 30
0.0
 11
0.92
 21
0.0
 31
0.0
  0
LINE
  5
D3
330
1F
100
AcDbEntity
  8
0
  6
Continuous
 62
     7
370
    15
100
AcDbLine
 10
0.57
 20
0.0
 30
0.0
 11
0.71
 21
0.0
 31
0.0
  0
LINE
  5
D4
330
1F
100
AcDbEntity
  8
0
  6
Continuous
 62
     7
370
    15
100
AcDbLine
 10
0.0
 20
0.0
 30
0.0
 11
0.5
 21
0.0
 31
0.0
  0
LINE
  5
D5
330
1F
100
AcDbEntity
  8
0
  6
Continuous
 62
     7
370
    15
100
AcDbLine
 10
0.0
 20
0.75
 30
0.0
 11
0.0
 21
0.0
 31
0.0
  0
MTEXT
  5
D7
330
1F
100
AcDbEntity
  8
0
  6
Continuous
 62
     7
100
AcDbMText
 10
0.0
 20
-0.0401404091
 30
0.0
 40
0.1903
 41
0.0
 71
     1
 72
     1
  1
SolidWorks Educational Edition.
  7
SLDTEXTSTYLE0
 73
     1
 44
1.0
  0
MTEXT
  5
D8
330
1F
100
AcDbEntity
  8
0
  6
Continuous
 62
     7
100
AcDbMText
 10
0.0
 20
-0.3255904091
 30
0.0
 40
0.1903
 41
0.0
 71
     1
 72
     1
  1
For Instructional Use Only.
  7
SLDTEXTSTYLE0
 73
     1
 44
1.0
  0
ENDSEC
  0
SECTION
  2
OBJECTS
  0
DICTIONARY
  5
C
330
0
100
AcDbDictionary
281
     1
  3
ACAD_GROUP
350
D
  3
ACAD_LAYOUT
350
1A
  3
ACAD_MLINESTYLE
350
17
  3
ACAD_PLOTSETTINGS
350
19
  3
ACAD_PLOTSTYLENAME
350
E
  3
ACAD_SCALELIST
350
47
  0
DICTIONARY
  5
D
102
{ACAD_REACTORS
330
C
102
}
330
C
100
AcDbDictionary
281
     1
  0
DICTIONARY
  5
1A
102
{ACAD_REACTORS
330
C
102
}
330
C
100
AcDbDictionary
281
     1
  3
Layout1
350
1E
  3
Layout2
350
26
  3
Model
350
22
  0
DICTIONARY
  5
17
102
{ACAD_REACTORS
330
C
102
}
330
C
100
AcDbDictionary
281
     1
  3
Standard
350
18
  0
DICTIONARY
  5
19
102
{ACAD_REACTORS
330
C
102
}
330
C
100
AcDbDictionary
281
     1
  0
ACDBDICTIONARYWDFLT
  5
E
102
{ACAD_REACTORS
330
C
102
}
330
C
100
AcDbDictionary
281
     1
  3
Normal
350
F
100
AcDbDictionaryWithDefault
340
F
  0
DICTIONARY
  5
47
102
{ACAD_REACTORS
330
C
102
}
330
C
100
AcDbDictionary
281
     1
  3
A0
350
48
  3
A1
350
49
  3
A2
350
4A
  3
A3
350
4B
  3
A4
350
4C
  3
A5
350
4D
  3
A6
350
4E
  3
A7
350
4F
  3
A8
350
50
  3
A9
350
51
  3
B0
350
52
  3
B1
350
53
  3
B2
350
54
  3
B3
350
55
  3
B4
350
56
  3
B5
350
57
  3
B6
350
58
  3
B7
350
59
  3
B8
350
5A
  3
B9
350
5B
  3
C0
350
5C
  3
C1
350
5D
  3
C2
350
5E
  3
C3
350
5F
  3
C4
350
60
  3
C5
350
61
  3
C6
350
62
  3
C7
350
63
  3
C8
350
64
  3
C9
350
65
  3
D0
350
66
  3
D1
350
67
  3
D2
350
68
  0
LAYOUT
  5
1E
102
{ACAD_REACTORS
330
1A
102
}
330
1A
100
AcDbPlotSettings
  1

  2
none_device
  4

  6

 40
0.0
 41
0.0
 42
0.0
 43
0.0
 44
0.0
 45
0.0
 46
0.0
 47
0.0
 48
0.0
 49
0.0
140
0.0
141
0.0
142
1.0
143
1.0
 70
   688
 72
     0
 73
     0
 74
     5
  7

 75
    16
147
1.0
148
0.0
149
0.0
100
AcDbLayout
  1
Layout1
 70
     1
 71
     1
 10
0.0
 20
0.0
 11
12.0
 21
9.0
 12
0.0
 22
0.0
 32
0.0
 14
1.0000000000E+20
 24
1.0000000000E+20
 34
1.0000000000E+20
 15
-1.0000000000E+20
 25
-1.0000000000E+20
 35
-1.0000000000E+20
146
0.0
 13
0.0
 23
0.0
 33
0.0
 16
1.0
 26
0.0
 36
0.0
 17
0.0
 27
1.0
 37
0.0
 76
     0
330
1B
  0
LAYOUT
  5
26
102
{ACAD_REACTORS
330
1A
102
}
330
1A
100
AcDbPlotSettings
  1

  2
none_device
  4

  6

 40
0.0
 41
0.0
 42
0.0
 43
0.0
 44
0.0
 45
0.0
 46
0.0
 47
0.0
 48
0.0
 49
0.0
140
0.0
141
0.0
142
1.0
143
1.0
 70
   688
 72
     0
 73
     0
 74
     5
  7

 75
    16
147
1.0
148
0.0
149
0.0
100
AcDbLayout
  1
Layout2
 70
     1
 71
     2
 10
0.0
 20
0.0
 11
0.0
 21
0.0
 12
0.0
 22
0.0
 32
0.0
 14
0.0
 24
0.0
 34
0.0
 15
0.0
 25
0.0
 35
0.0
146
0.0
 13
0.0
 23
0.0
 33
0.0
 16
1.0
 26
0.0
 36
0.0
 17
0.0
 27
1.0
 37
0.0
 76
     0
330
23
  0
LAYOUT
  5
22
102
{ACAD_REACTORS
330
1A
102
}
330
1A
100
AcDbPlotSettings
  1

  2
none_device
  4
ANSI_A_(11.00_x_8.50_Inches)
  6

 40
6.35
 41
19.05
 42
6.35000508
 43
19.05000254
 44
279.4
 45
215.9
 46
-4.95300254
 47
-12.0510961605
 48
0.0
 49
0.0
140
0.0
141
0.0
142
3.9744525547
143
1.0
 70
  1696
 72
     0
 73
     0
 74
     0
  7

 75
     0
147
0.5913241897
148
-39.4088153714
149
0.0
100
AcDbLayout
  1
Model
 70
     1
 71
     0
 10
0.0
 20
0.0
 11
12.0
 21
9.0
 12
0.0
 22
0.0
 32
0.0
 14
0.0
 24
0.0
 34
0.0
 15
2.74
 25
2.0
 35
0.0
146
0.0
 13
0.0
 23
0.0
 33
0.0
 16
1.0
 26
0.0
 36
0.0
 17
0.0
 27
1.0
 37
0.0
 76
     0
330
1F
331
29
  0
MLINESTYLE
  5
18
102
{ACAD_REACTORS
330
17
102
}
330
17
100
AcDbMlineStyle
  2
Standard
 70
     0
  3

 62
   256
 51
90.0
 52
90.0
 71
     2
 49
0.5
 62
   256
  6
BYLAYER
 49
-0.5
 62
   256
  6
BYLAYER
  0
ACDBPLACEHOLDER
  5
F
102
{ACAD_REACTORS
330
E
102
}
330
E
  0
SCALE
  5
48
102
{ACAD_REACTORS
330
47
102
}
330
47
100
AcDbScale
 70
     0
300
1:1
140
1.0
141
1.0
290
     1
  0
SCALE
  5
49
102
{ACAD_REACTORS
330
47
102
}
330
47
100
AcDbScale
 70
     0
300
1:2
140
1.0
141
2.0
290
     0
  0
SCALE
  5
4A
102
{ACAD_REACTORS
330
47
102
}
330
47
100
AcDbScale
 70
     0
300
1:4
140
1.0
141
4.0
290
     0
  0
SCALE
  5
4B
102
{ACAD_REACTORS
330
47
102
}
330
47
100
AcDbScale
 70
     0
300
1:5
140
1.0
141
5.0
290
     0
  0
SCALE
  5
4C
102
{ACAD_REACTORS
330
47
102
}
330
47
100
AcDbScale
 70
     0
300
1:8
140
1.0
141
8.0
290
     0
  0
SCALE
  5
4D
102
{ACAD_REACTORS
330
47
102
}
330
47
100
AcDbScale
 70
     0
300
1:10
140
1.0
141
10.0
290
     0
  0
SCALE
  5
4E
102
{ACAD_REACTORS
330
47
102
}
330
47
100
AcDbScale
 70
     0
300
1:16
140
1.0
141
16.0
290
     0
  0
SCALE
  5
4F
102
{ACAD_REACTORS
330
47
102
}
330
47
100
AcDbScale
 70
     0
300
1:20
140
1.0
141
20.0
290
     0
  0
SCALE
  5
50
102
{ACAD_REACTORS
330
47
102
}
330
47
100
AcDbScale
 70
     0
300
1:30
140
1.0
141
30.0
290
     0
  0
SCALE
  5
51
102
{ACAD_REACTORS
330
47
102
}
330
47
100
AcDbScale
 70
     0
300
1:40
140
1.0
141
40.0
290
     0
  0
SCALE
  5
52
102
{ACAD_REACTORS
330
47
102
}
330
47
100
AcDbScale
 70
     0
300
1:50
140
1.0
141
50.0
290
     0
  0
SCALE
  5
53
102
{ACAD_REACTORS
330
47
102
}
330
47
100
AcDbScale
 70
     0
300
1:100
140
1.0
141
100.0
290
     0
  0
SCALE
  5
54
102
{ACAD_REACTORS
330
47
102
}
330
47
100
AcDbScale
 70
     0
300
2:1
140
2.0
141
1.0
290
     0
  0
SCALE
  5
55
102
{ACAD_REACTORS
330
47
102
}
330
47
100
AcDbScale
 70
     0
300
4:1
140
4.0
141
1.0
290
     0
  0
SCALE
  5
56
102
{ACAD_REACTORS
330
47
102
}
330
47
100
AcDbScale
 70
     0
300
8:1
140
8.0
141
1.0
290
     0
  0
SCALE
  5
57
102
{ACAD_REACTORS
330
47
102
}
330
47
100
AcDbScale
 70
     0
300
10:1
140
10.0
141
1.0
290
     0
  0
SCALE
  5
58
102
{ACAD_REACTORS
330
47
102
}
330
47
100
AcDbScale
 70
     0
300
100:1
140
100.0
141
1.0
290
     0
  0
SCALE
  5
59
102
{ACAD_REACTORS
330
47
102
}
330
47
100
AcDbScale
 70
     0
300
1/128" = 1'-0"
140
0.0078125
141
12.0
290
     0
  0
SCALE
  5
5A
102
{ACAD_REACTORS
330
47
102
}
330
47
100
AcDbScale
 70
     0
300
1/64" = 1'-0"
140
0.015625
141
12.0
290
     0
  0
SCALE
  5
5B
102
{ACAD_REACTORS
330
47
102
}
330
47
100
AcDbScale
 70
     0
300
1/32" = 1'-0"
140
0.03125
141
12.0
290
     0
  0
SCALE
  5
5C
102
{ACAD_REACTORS
330
47
102
}
330
47
100
AcDbScale
 70
     0
300
1/16" = 1'-0"
140
0.0625
141
12.0
290
     0
  0
SCALE
  5
5D
102
{ACAD_REACTORS
330
47
102
}
330
47
100
AcDbScale
 70
     0
300
3/32" = 1'-0"
140
0.09375
141
12.0
290
     0
  0
SCALE
  5
5E
102
{ACAD_REACTORS
330
47
102
}
330
47
100
AcDbScale
 70
     0
300
1/8" = 1'-0"
140
0.125
141
12.0
290
     0
  0
SCALE
  5
5F
102
{ACAD_REACTORS
330
47
102
}
330
47
100
AcDbScale
 70
     0
300
3/16" = 1'-0"
140
0.1875
141
12.0
290
     0
  0
SCALE
  5
60
102
{ACAD_REACTORS
330
47
102
}
330
47
100
AcDbScale
 70
     0
300
1/4" = 1'-0"
140
0.25
141
12.0
290
     0
  0
SCALE
  5
61
102
{ACAD_REACTORS
330
47
102
}
330
47
100
AcDbScale
 70
     0
300
3/8" = 1'-0"
140
0.375
141
12.0
290
     0
  0
SCALE
  5
62
102
{ACAD_REACTORS
330
47
102
}
330
47
100
AcDbScale
 70
     0
300
1/2" = 1'-0"
140
0.5
141
12.0
290
     0
  0
SCALE
  5
63
102
{ACAD_REACTORS
330
47
102
}
330
47
100
AcDbScale
 70
     0
300
3/4" = 1'-0"
140
0.75
141
12.0
290
     0
  0
SCALE
  5
64
102
{ACAD_REACTORS
330
47
102
}
330
47
100
AcDbScale
 70
     0
300
1" = 1'-0"
140
1.0
141
12.0
290
     0
  0
SCALE
  5
65
102
{ACAD_REACTORS
330
47
102
}
330
47
100
AcDbScale
 70
     0
300
1-1/2" = 1'-0"
140
1.5
141
12.0
290
     0
  0
SCALE
  5
66
102
{ACAD_REACTORS
330
47
102
}
330
47
100
AcDbScale
 70
     0
300
3" = 1'-0"
140
3.0
141
12.0
290
     0
  0
SCALE
  5
67
102
{ACAD_REACTORS
330
47
102
}
330
47
100
AcDbScale
 70
     0
300
6" = 1'-0"
140
6.0
141
12.0
290
     0
  0
SCALE
  5
68
102
{ACAD_REACTORS
330
47
102
}
330
47
100
AcDbScale
 70
     0
300
1'-0" = 1'-0"
140
12.0
141
12.0
290
     0
  0
ENDSEC
  0
EOF
